<svg width="1727" height="942" viewBox="0 0 1727 942" fill="none" xmlns="http://www.w3.org/2000/svg">
<g clip-path="url(#clip0_20_40)">
<mask id="mask0_20_40" style="mask-type:luminance" maskUnits="userSpaceOnUse" x="-1" y="-1" width="1729" height="972">
<path d="M1727.63 970.368H-0.632324V-0.63208H1727.63V970.368Z" fill="white"/>
</mask>
<g mask="url(#mask0_20_40)">
<path d="M-60.6855 185.982C-24.5273 134.524 27.5609 98.1115 83.9475 84.5832C102.912 80.0317 123.519 78.2616 140.966 87.9969C163.47 100.514 175.228 128.708 187.112 153.868C225.167 234.153 289.266 306.598 368.789 314.816C430.485 321.138 489.401 288.392 548.189 266.14C607.105 244.014 677.904 234.405 725.82 279.289C768.679 319.621 778.54 390.044 811.791 440.743C847.57 495.362 908.381 522.671 967.929 527.602C1027.48 532.406 1086.77 517.487 1144.8 501.936C1169.45 495.362 1198.41 489.799 1217.12 509.143C1238.23 530.763 1233.05 568.945 1236.71 601.059C1242.15 647.839 1272.11 689.815 1311.18 705.113C1347.21 719.4 1386.78 711.687 1424.33 703.849C1462.68 695.841 1500.99 687.834 1539.25 679.826C1577.44 671.861 1608.41 648.092 1646.59 656.057C1662.77 659.344 1678.45 665.666 1694.76 668.574C1710.94 671.608 1728.52 670.976 1742.8 661.494" stroke="url(#paint0_linear_20_40)"/>
<path d="M-60.4326 192.556C-37.9285 162.845 -9.60876 137.938 21.8717 119.605C41.9737 107.847 63.3399 98.9964 85.3383 93.307C100.383 89.514 116.566 87.3647 131.232 91.1576C134.94 92.0848 138.564 93.4756 142.104 95.3299C164.608 106.835 176.619 133.386 188.882 157.155C198.87 176.626 210.628 195.591 223.776 213.291C241.097 236.428 261.073 257.29 283.197 274.358C310 295.093 339.458 310.012 371.444 314.311C416.326 320.253 459.817 305.334 503.181 288.898C518.605 283.082 534.03 277.013 549.58 271.577C578.026 261.715 609.128 254.382 639.217 254.129C671.583 253.75 702.431 261.588 727.337 283.588C734.417 289.783 740.612 296.737 746.175 304.196C771.713 338.586 784.609 385.239 807.113 424.433C810.063 429.406 813.139 434.295 816.342 439.099C823.801 450.099 832.272 460.213 841.375 469.19C855.661 483.477 871.844 495.109 889.291 504.212C914.703 517.614 942.643 525.579 970.457 528.613C1000.29 531.774 1030.26 529.878 1060.09 525.2C1088.92 520.775 1117.62 513.694 1146.07 506.108C1160.23 502.315 1175.9 498.902 1190.31 500.166C1200.56 501.051 1210.16 504.591 1218.13 512.177C1239.24 532.786 1234.82 569.198 1238.99 599.668C1239.58 603.461 1240.3 607.254 1241.14 611.047C1250.37 650.747 1278.31 685.01 1313.71 697.906C1319.65 700.056 1325.72 701.699 1331.79 702.837C1362.64 708.4 1395.25 702.078 1426.61 695.883C1439.76 693.27 1452.9 690.7 1466.05 688.171C1491.09 683.24 1516.25 678.309 1541.28 673.378C1561.13 669.459 1579.08 661.494 1597.16 655.678C1613.72 650.368 1630.41 646.954 1648.61 650.62C1664.8 653.781 1680.47 659.85 1696.66 662.632C1712.84 665.413 1730.29 664.654 1744.57 655.172" stroke="url(#paint1_linear_20_40)"/>
<path d="M-60.0532 199.004C-37.2963 171.063 -8.47079 146.914 23.2625 128.708C43.4909 117.076 64.8572 107.973 86.7291 102.157C101.774 98.1115 117.704 95.5828 132.369 98.8701C136.078 99.713 139.66 100.977 143.116 102.663C165.62 113.157 178.01 137.938 190.653 160.316C200.893 178.649 212.777 196.729 226.305 213.544C244.005 235.417 264.36 255.393 286.611 272.335C313.54 292.944 342.618 308.748 374.225 313.931C418.349 321.138 461.46 307.736 504.572 292.817C519.996 287.507 535.42 281.944 550.845 277.013C579.291 267.91 610.645 261.209 640.735 260.703C673.1 260.198 703.948 267.025 728.981 287.886C736.061 293.702 742.256 300.277 747.945 307.357C773.989 340.103 788.149 384.86 811.412 423.042C814.446 427.931 817.607 432.736 820.894 437.456C828.479 448.329 836.95 458.443 846.053 467.547C860.213 481.96 876.143 493.845 893.21 503.327C918.116 517.235 945.551 525.832 972.86 529.498C1002.32 533.544 1031.77 532.406 1061.49 528.361C1090.06 524.568 1118.76 517.867 1147.2 510.407C1161.36 506.614 1177.04 503.074 1191.33 504.086C1201.57 504.844 1211.18 508.131 1219.01 515.338C1240.25 534.809 1236.59 569.325 1241.39 598.278C1241.9 601.902 1242.61 605.484 1243.54 609.024C1253.28 646.575 1281.22 678.941 1316.36 690.7C1322.31 692.723 1328.25 694.113 1334.32 695.125C1364.91 699.929 1397.66 693.86 1428.88 688.045C1442.03 685.516 1455.14 683.072 1468.2 680.711C1493.24 676.034 1518.39 671.608 1543.43 666.93C1563.15 663.39 1581.1 655.678 1599.18 650.115C1615.74 645.058 1632.43 641.77 1650.51 645.184C1666.69 648.345 1682.37 654.034 1698.55 656.563C1714.74 659.092 1732.06 658.207 1746.34 648.851" stroke="url(#paint2_linear_20_40)"/>
<path d="M-59.8008 205.579C-36.6645 179.281 -7.33336 155.891 24.5264 137.811C44.8812 126.306 66.2475 117.076 88.1194 110.881C103.038 106.583 118.968 103.801 133.507 106.709C137.131 107.383 140.713 108.479 144.253 109.996C166.631 119.479 179.4 142.616 192.422 163.603C202.916 180.798 215.053 197.867 228.833 213.671C246.786 234.532 267.52 253.37 290.024 270.312C317.206 290.794 345.779 307.357 377.006 313.426C420.371 321.897 463.103 310.138 505.962 296.737C521.26 291.932 536.684 286.875 552.235 282.45C580.681 274.105 612.035 267.91 642.251 267.152C674.617 266.519 705.339 272.588 730.498 292.059C737.704 297.495 743.899 303.817 749.715 310.518C776.264 341.494 791.689 384.481 815.836 421.652C818.871 426.456 822.073 431.176 825.445 435.812C833.157 446.559 841.754 456.674 850.73 465.903C864.764 480.443 880.314 492.707 897.003 502.442C921.53 516.855 948.459 526.211 975.388 530.51C1004.34 535.188 1033.29 534.935 1062.88 531.521C1091.2 528.361 1120.02 521.913 1148.34 514.58C1162.5 510.913 1178.05 507.246 1192.34 508.131C1202.58 508.764 1212.06 511.672 1220.03 518.499C1241.26 536.832 1238.48 569.578 1243.67 596.887C1244.26 600.258 1245.06 603.63 1246.07 607.002C1256.18 642.529 1284 672.873 1319.02 683.493C1324.83 685.263 1330.78 686.527 1336.84 687.412C1367.31 691.458 1399.93 685.642 1431.16 680.079C1444.31 677.804 1457.46 675.528 1470.48 673.252C1495.51 668.953 1520.42 664.781 1545.45 660.609C1565.17 657.195 1583.13 649.862 1601.2 644.552C1617.77 639.747 1634.33 636.587 1652.53 639.874C1668.59 642.782 1684.27 648.218 1700.45 650.494C1716.63 652.896 1733.83 651.759 1747.99 642.529" stroke="url(#paint3_linear_20_40)"/>
<path d="M-59.4214 212.153C-36.0323 187.499 -6.1954 164.868 25.9172 146.914C46.3985 135.535 67.7647 126.18 89.5102 119.605C104.429 115.18 120.232 112.019 134.645 114.421C138.269 115.011 141.809 115.981 145.265 117.329C167.769 125.8 180.791 147.167 194.066 166.891C204.939 182.948 217.328 198.878 231.362 213.924C249.567 233.521 270.807 251.474 293.438 268.289C320.746 288.645 348.94 306.093 379.661 313.046C422.394 322.655 464.747 312.541 507.353 300.656C522.651 296.357 538.075 291.806 553.499 287.76C582.072 280.3 613.426 274.611 643.769 273.726C676.134 272.841 706.729 278.151 732.141 296.357C739.221 301.415 745.669 307.231 751.611 313.679C778.667 342.884 795.102 384.228 820.135 420.261C823.254 424.897 826.583 429.575 830.123 434.295C837.961 444.789 846.558 454.903 855.408 464.259C869.315 478.926 884.613 491.442 900.922 501.557C924.943 516.476 951.367 526.464 977.917 531.521C1006.24 536.958 1034.94 537.337 1064.14 534.682C1092.46 532.027 1121.16 526.085 1149.48 518.752C1163.76 515.085 1179.19 511.419 1193.35 512.051C1203.59 512.557 1213.07 515.212 1220.91 521.66C1242.28 538.854 1240.25 569.83 1245.94 595.37C1246.62 598.657 1247.46 601.86 1248.47 604.979C1259.22 638.357 1286.91 666.678 1321.67 676.286C1327.49 677.888 1333.39 679.026 1339.37 679.7C1369.72 683.114 1402.21 677.424 1433.56 672.114C1446.58 669.965 1459.61 667.942 1472.63 665.792C1497.66 661.747 1522.57 658.08 1547.47 654.161C1567.2 651.126 1585.15 644.046 1603.23 638.989C1619.79 634.437 1636.35 631.276 1654.43 634.437C1670.61 637.219 1686.16 642.403 1702.35 644.552C1718.4 646.575 1735.6 645.437 1749.76 636.207" stroke="url(#paint4_linear_20_40)"/>
<path d="M-59.1685 218.728C-35.4001 195.717 -5.05748 173.844 27.308 156.144C47.7892 144.765 69.1555 135.283 90.901 128.329C105.819 123.651 121.37 120.364 135.783 122.134C139.323 122.639 142.863 123.524 146.403 124.662C168.78 132.122 182.182 151.719 195.836 170.051C206.961 184.971 219.604 200.016 233.891 214.176C252.475 232.635 273.968 249.577 296.851 266.266C324.413 286.496 352.1 304.702 382.443 312.541C424.417 323.54 466.391 314.943 508.87 304.575C524.042 300.782 539.339 296.863 554.89 293.197C583.463 286.496 614.817 281.312 645.159 280.3C677.651 279.289 708.12 283.588 733.658 300.53C740.865 305.334 747.313 310.771 753.381 316.839C780.942 344.275 798.642 383.849 824.433 418.87C827.721 423.422 831.134 428.016 834.674 432.651C842.639 443.019 851.236 453.26 860.086 462.616C873.867 477.408 888.785 490.178 904.841 500.672C928.357 516.097 954.275 526.717 980.445 532.533C1008.26 538.728 1036.45 539.866 1065.53 537.843C1093.6 535.82 1122.3 530.131 1150.62 522.924C1164.9 519.384 1180.33 515.717 1194.36 515.97C1204.6 516.35 1213.96 518.752 1221.92 524.694C1243.29 540.877 1242.15 569.957 1248.22 593.979C1248.98 597.013 1249.9 600.006 1251 602.956C1262.25 634.184 1289.69 660.609 1324.33 669.08C1330.06 670.513 1335.92 671.482 1341.9 671.988C1371.99 674.643 1404.48 669.08 1435.84 664.275C1448.86 662.252 1461.88 660.23 1474.9 658.333C1499.81 654.666 1524.72 651.253 1549.62 647.713C1569.22 644.931 1587.17 638.357 1605.25 633.552C1621.81 629.001 1638.37 626.093 1656.45 629.127C1672.51 631.656 1688.19 636.587 1704.24 638.483C1720.3 640.38 1737.37 638.989 1751.53 629.759" stroke="url(#paint5_linear_20_40)"/>
<path d="M-58.9155 225.302C-34.6414 203.935 -3.79313 182.947 28.6987 165.247C49.3064 153.994 70.6727 144.386 92.2918 137.179C107.084 132.248 122.634 128.582 136.921 129.972C140.461 130.225 144.001 130.984 147.414 131.995C169.918 138.443 183.572 156.397 197.606 173.339C208.984 187.12 221.88 201.154 236.419 214.303C255.257 231.624 277.255 247.681 300.265 264.243C327.953 284.22 355.261 303.311 385.224 312.161C426.44 324.299 468.034 317.345 510.261 308.368C525.432 305.208 540.73 301.794 556.154 298.633C584.853 292.691 616.207 288.013 646.676 286.875C679.168 285.611 709.637 289.151 735.302 304.828C742.508 309.253 749.083 314.311 755.151 319.874C783.345 345.666 802.182 383.469 828.732 417.606C832.103 421.989 835.601 426.456 839.226 431.008C847.317 441.249 856.04 451.49 864.764 460.972C878.418 475.891 893.084 489.04 908.761 499.787C931.77 515.717 957.182 526.97 982.847 533.544C1010.16 540.372 1038.1 542.394 1066.92 541.004C1094.86 539.613 1123.56 534.303 1151.88 527.096C1166.04 523.556 1181.34 519.89 1195.5 520.016C1205.49 520.142 1214.97 522.292 1222.93 527.855C1244.3 542.9 1243.92 570.21 1250.49 592.588C1251.34 595.37 1252.31 598.151 1253.4 600.933C1265.16 630.139 1292.59 654.54 1326.98 661.873C1332.71 663.137 1338.53 663.938 1344.43 664.275C1374.39 666.298 1406.76 660.862 1438.11 656.31C1451.13 654.413 1464.16 652.643 1477.05 650.873C1501.96 647.586 1526.74 644.552 1551.64 641.265C1571.24 638.736 1589.19 632.541 1607.27 627.989C1623.83 623.69 1640.4 620.909 1658.35 623.69C1674.41 626.219 1690.08 630.771 1706.14 632.414C1722.2 634.184 1739.14 632.541 1753.3 623.438" stroke="url(#paint6_linear_20_40)"/>
<path d="M-58.5361 231.877C-34.0092 212.027 -2.65517 191.924 30.0896 174.35C50.6973 163.224 72.0635 153.489 93.6826 145.903C108.475 140.719 123.899 136.8 138.059 137.685C141.599 137.938 145.139 138.57 148.552 139.328C170.93 144.765 184.963 160.948 199.376 176.499C211.007 189.269 224.156 202.292 238.821 214.556C258.165 230.612 280.543 245.784 303.679 262.221C331.493 282.07 358.422 302.047 387.879 311.656C428.589 325.057 469.678 319.747 511.652 312.288C526.697 309.633 541.995 306.725 557.545 303.943C586.118 298.886 617.598 294.714 648.194 293.449C680.559 292.059 711.028 294.714 736.819 309.001C744.152 313.173 750.726 317.851 757.048 323.035C785.747 347.057 805.722 383.09 833.031 416.215C836.487 420.43 840.069 424.813 843.777 429.364C851.995 439.479 860.718 449.72 869.442 459.329C882.97 474.374 897.256 487.776 912.68 499.028C935.184 515.338 960.091 527.349 985.376 534.556C1012.18 542.142 1039.61 544.923 1068.19 544.165C1096 543.406 1124.7 538.475 1153.02 531.395C1167.18 527.855 1182.48 524.062 1196.51 523.935C1206.5 523.935 1215.85 525.832 1223.82 531.016C1245.44 544.923 1245.69 570.463 1252.9 591.197C1253.74 593.81 1254.75 596.381 1255.93 598.91C1268.19 625.966 1295.38 648.345 1329.64 654.666C1335.29 655.678 1341.06 656.31 1346.96 656.563C1376.67 657.827 1409.03 652.644 1440.39 648.471C1453.41 646.701 1466.43 645.058 1479.33 643.414C1504.11 640.38 1528.89 637.725 1553.67 634.943C1573.14 632.667 1591.22 626.725 1609.3 622.426C1625.86 618.38 1642.42 615.599 1660.37 618.254C1676.43 620.656 1691.98 624.955 1708.04 626.472C1723.97 627.863 1740.91 626.219 1755.07 617.116" stroke="url(#paint7_linear_20_40)"/>
<path d="M-58.2832 238.451C-33.377 220.245 -1.51725 200.901 31.3539 183.453C52.2144 172.454 73.5807 162.465 95.0734 154.627C109.739 149.317 125.037 145.018 139.197 145.397C142.737 145.524 146.15 146.029 149.564 146.661C172.068 150.96 186.354 165.5 201.146 179.787C213.03 191.292 226.432 203.303 241.35 214.808C260.946 229.727 283.703 243.761 307.092 260.198C335.159 279.921 361.583 300.656 390.661 311.276C430.612 325.816 471.322 322.149 513.043 316.207C528.088 314.058 543.385 311.656 558.81 309.38C587.509 305.081 618.989 301.415 649.711 299.897C682.076 298.38 712.545 300.15 738.463 313.299C745.796 316.966 752.496 321.391 758.818 326.195C788.023 348.447 809.262 382.711 837.329 414.824C840.869 418.997 844.536 423.295 848.329 427.72C856.799 437.709 865.523 447.95 874.12 457.685C887.521 472.857 901.554 486.511 916.599 498.143C938.598 514.959 962.998 527.602 987.905 535.441C1014.2 543.785 1041.26 547.072 1069.58 547.325C1097.26 547.452 1125.96 542.521 1154.16 535.567C1168.32 532.027 1183.49 528.234 1197.52 527.981C1207.51 527.728 1216.86 529.372 1224.83 534.176C1246.45 546.946 1247.59 570.589 1255.17 589.807C1256.1 592.167 1257.15 594.527 1258.33 596.887C1271.1 621.794 1298.28 642.276 1332.17 647.46C1337.81 648.303 1343.55 648.766 1349.36 648.851C1379.07 649.483 1411.44 644.425 1442.66 640.506C1455.69 638.862 1468.58 637.472 1481.48 636.081C1506.26 633.299 1531.04 631.024 1555.69 628.495C1575.16 626.472 1593.11 621.035 1611.32 616.863C1627.88 613.07 1644.44 610.415 1662.27 612.944C1678.33 615.093 1694 619.139 1709.93 620.403C1725.86 621.668 1742.68 619.771 1756.84 610.794" stroke="url(#paint8_linear_20_40)"/>
<path d="M-58.0308 245.026C-32.7453 228.463 -0.37981 209.878 32.7442 192.556C53.6047 181.683 74.971 171.569 96.4637 163.351C111.129 157.787 126.301 153.362 140.334 153.236C143.874 153.109 147.288 153.489 150.701 153.995C173.205 157.282 187.744 170.178 202.789 182.948C215.053 193.441 228.707 204.441 243.878 214.935C263.727 228.716 286.99 241.865 310.505 258.175C338.699 277.772 364.743 299.265 393.315 310.771C432.634 326.575 472.965 324.552 514.559 320.127C529.478 318.483 544.776 316.586 560.2 314.816C588.899 311.276 620.506 308.242 651.101 306.472C683.593 304.702 713.936 305.713 740.106 317.598C747.439 320.885 754.14 324.931 760.587 329.356C790.424 349.838 812.802 382.331 841.628 413.434C845.294 417.479 849.087 421.652 852.88 426.077C861.477 435.939 870.2 446.18 878.797 456.041C892.072 471.34 905.726 485.374 920.392 497.258C942.011 514.579 965.906 527.855 990.433 536.452C1016.1 545.555 1042.77 549.854 1070.97 550.36C1098.4 550.865 1127.1 546.693 1155.29 539.739C1169.45 536.326 1184.63 532.406 1198.53 531.901C1208.52 531.521 1217.75 533.039 1225.71 537.211C1247.46 548.969 1249.36 570.842 1257.45 588.289C1258.46 590.481 1259.6 592.672 1260.86 594.864C1274.14 617.748 1301.07 636.207 1334.82 640.253C1340.47 640.927 1346.16 641.265 1351.89 641.265C1381.47 641.012 1413.71 636.081 1444.94 632.667C1457.84 631.15 1470.86 629.886 1483.75 628.621C1508.53 626.093 1533.19 624.196 1557.84 622.047C1577.18 620.277 1595.14 615.22 1613.34 611.3C1629.9 607.76 1646.47 605.231 1664.29 607.507C1680.22 609.657 1695.9 613.323 1711.83 614.334C1727.76 615.346 1744.45 613.449 1758.61 604.473" stroke="url(#paint9_linear_20_40)"/>
<path d="M-57.6514 251.474C-31.9866 236.681 0.758151 218.854 34.135 201.786C55.122 190.913 76.4882 180.672 97.8545 172.074C112.394 166.385 127.565 161.581 141.472 160.948C144.886 160.822 148.426 161.075 151.713 161.328C174.217 163.603 189.135 174.73 204.559 186.235C217.076 195.464 230.983 205.579 246.407 215.188C266.635 227.831 290.151 239.969 314.046 256.152C342.365 275.623 367.904 297.875 396.097 310.391C434.657 327.46 474.609 326.954 515.95 324.046C530.869 323.035 546.04 321.644 561.464 320.127C590.29 317.472 621.897 314.943 652.618 313.046C685.11 311.15 715.326 311.15 741.623 321.77C749.083 324.805 755.91 328.345 762.484 332.391C792.827 351.229 816.342 381.952 845.926 412.043C849.719 415.962 853.638 420.135 857.431 424.433C866.155 434.169 875.004 444.536 883.475 454.398C896.624 469.823 909.898 484.109 924.311 496.373C945.425 514.2 968.814 528.108 992.835 537.464C1018.12 547.326 1044.42 552.383 1072.23 553.521C1099.67 554.659 1128.24 550.739 1156.43 543.912C1170.59 540.498 1185.76 536.705 1199.54 535.82C1209.53 535.314 1218.76 536.579 1226.73 540.372C1248.47 550.992 1251.25 571.095 1259.72 586.899C1260.82 588.922 1262 590.903 1263.26 592.841C1277.04 613.576 1303.85 630.139 1337.48 633.047C1343.04 633.552 1348.73 633.679 1354.42 633.552C1383.75 632.541 1415.99 627.863 1447.22 624.702C1460.11 623.311 1473.13 622.3 1485.9 621.162C1510.68 619.013 1535.21 617.495 1559.86 615.725C1579.21 614.208 1597.16 609.404 1615.36 605.864C1631.93 602.45 1648.49 600.048 1666.19 602.197C1682.24 604.094 1697.79 607.507 1713.72 608.392C1729.53 609.151 1746.22 607.002 1760.38 598.151" stroke="url(#paint10_linear_20_40)"/>
<path d="M-57.3984 258.048C-31.3544 244.899 1.89607 227.957 35.5258 210.889C56.5128 200.142 77.879 189.648 99.2453 180.925C113.784 174.856 128.703 169.799 142.61 168.661C146.023 168.408 149.437 168.534 152.851 168.661C175.355 169.925 190.526 179.281 206.329 189.396C219.099 197.614 233.258 206.717 248.935 215.441C269.417 226.819 293.438 238.072 317.459 254.129C345.905 273.347 371.064 296.61 398.879 309.886C436.68 328.218 476.379 329.356 517.341 327.965C532.133 327.46 547.431 326.575 562.855 325.563C591.681 323.667 623.287 321.644 654.136 319.621C686.628 317.471 716.844 316.713 743.267 326.069C750.726 328.724 757.68 331.885 764.254 335.551C795.229 352.62 819.756 381.573 850.225 410.778C854.144 414.445 858.063 418.491 861.983 422.79C870.833 432.398 879.809 442.766 888.153 452.754C901.175 468.432 914.197 482.845 928.231 495.488C948.838 513.821 971.722 528.361 995.364 538.475C1020.14 548.969 1045.93 554.911 1073.62 556.681C1100.8 558.451 1129.5 554.911 1157.7 548.21C1171.73 544.797 1186.77 540.877 1200.68 539.866C1210.42 539.107 1219.65 540.119 1227.61 543.532C1249.48 553.015 1253.02 571.221 1262 585.508C1263.14 587.278 1264.4 589.048 1265.79 590.818C1280.08 609.404 1306.75 623.943 1340.13 625.84C1345.69 626.093 1351.26 626.093 1356.95 625.84C1386.15 624.196 1418.26 619.645 1449.49 616.863C1462.39 615.599 1475.41 614.714 1488.18 613.702C1512.83 611.806 1537.36 610.794 1561.89 609.277C1581.23 608.013 1599.18 603.714 1617.39 600.301C1633.82 597.14 1650.51 594.864 1668.21 596.76C1684.14 598.53 1699.69 601.818 1715.62 602.323C1731.42 602.829 1747.99 600.553 1762.15 591.83" stroke="url(#paint11_linear_20_40)"/>
<path d="M-57.019 264.623C-30.7221 253.117 3.03402 236.934 36.7902 219.992C58.03 209.372 79.3962 198.752 100.636 189.648C115.049 183.453 129.967 178.017 143.748 176.499C147.161 175.994 150.575 176.247 153.862 175.994C176.493 174.603 191.917 183.959 208.099 192.683C221.122 199.637 235.534 207.855 251.464 215.567C272.198 225.808 296.599 236.175 320.873 252.106C349.572 271.197 374.225 295.219 401.534 309.506C438.703 328.977 478.022 331.253 518.732 331.885C533.524 332.011 548.695 331.505 564.246 331C593.071 329.988 624.678 328.345 655.526 326.069C688.145 323.919 718.234 322.276 744.784 330.241C752.37 332.643 759.323 335.425 766.024 338.712C797.631 354.01 823.296 381.193 854.523 409.388C858.569 412.928 862.615 416.974 866.534 421.146C875.51 430.628 884.487 440.996 892.831 451.11C905.727 466.914 918.369 481.707 932.15 494.603C952.252 513.442 974.629 528.613 997.892 539.487C1022.04 550.613 1047.45 557.44 1075.01 559.842C1102.07 562.244 1130.64 559.084 1158.83 552.383C1172.87 548.969 1187.91 545.05 1201.69 543.785C1211.43 542.9 1220.66 543.659 1228.62 546.693C1250.62 555.038 1254.92 571.474 1264.4 584.117C1265.58 585.634 1266.85 587.194 1268.19 588.795C1282.99 605.231 1309.54 617.875 1342.79 618.633C1348.22 618.76 1353.79 618.633 1359.47 618.127C1388.43 615.725 1420.54 611.427 1451.77 608.898C1464.66 607.886 1477.56 607.001 1490.45 606.243C1514.98 604.726 1539.51 603.967 1564.03 602.829C1583.25 601.944 1601.2 597.898 1619.41 594.737C1635.85 591.829 1652.53 589.554 1670.11 591.45C1686.04 593.094 1701.71 596.002 1717.52 596.255C1733.32 596.634 1749.76 594.232 1763.92 585.508" stroke="url(#paint12_linear_20_40)"/>
<path d="M-56.7661 271.197C-30.0899 261.336 4.17196 245.911 38.181 229.095C59.4208 218.602 80.787 207.855 102.027 198.372C116.44 192.051 131.232 186.235 144.759 184.212C148.299 183.706 151.713 183.453 155 183.327C177.631 182.442 193.181 188.511 209.87 195.97C223.144 201.786 237.81 208.866 253.993 215.82C275.106 224.923 299.886 234.153 324.286 250.083C353.112 269.048 377.386 293.829 404.315 309.001C440.726 329.736 479.666 334.161 520.249 335.678C534.915 336.31 550.086 336.436 565.51 336.31C594.336 336.184 626.069 335.046 657.044 332.643C689.662 330.241 719.752 327.713 746.428 334.54C754.014 336.436 761.094 338.965 767.921 341.873C800.033 355.401 826.836 380.814 858.822 407.997C862.868 411.537 867.04 415.33 871.212 419.502C880.188 428.858 889.291 439.226 897.509 449.467C910.278 465.397 922.668 480.443 936.069 493.718C955.666 513.062 977.537 528.866 1000.29 540.372C1024.06 552.383 1049.1 559.969 1076.28 563.003C1103.21 566.037 1131.78 563.13 1159.97 556.555C1174.01 553.268 1188.92 549.222 1202.7 547.705C1212.44 546.693 1221.54 547.199 1229.63 549.854C1251.63 557.061 1256.69 571.6 1266.68 582.727C1267.94 583.991 1269.33 585.382 1270.72 586.772C1285.89 601.059 1312.44 611.806 1345.44 611.427C1350.88 611.3 1356.31 611.047 1362 610.415C1390.83 607.254 1422.94 603.082 1454.04 600.933C1466.94 600.048 1479.83 599.416 1492.6 598.783C1517.13 597.646 1541.53 597.266 1566.06 596.381C1585.27 595.749 1603.23 592.083 1621.43 589.175C1637.87 586.519 1654.56 584.37 1672.13 586.014C1688.06 587.531 1703.61 590.186 1719.41 590.312C1735.22 590.439 1751.53 587.784 1765.69 579.186" stroke="url(#paint13_linear_20_40)"/>
<path d="M-56.5137 277.772C-29.4582 269.554 5.30939 254.887 39.5713 238.198C60.9375 227.831 82.3038 216.958 103.417 207.096C117.703 200.522 132.369 194.579 145.897 191.924C149.437 191.292 152.724 191.039 156.011 190.66C178.768 188.763 194.571 193.188 211.639 199.131C225.04 203.935 239.959 210.004 256.394 216.073C277.887 223.912 303.046 232.256 327.7 248.06C356.778 266.898 380.546 292.438 406.97 308.621C442.749 330.494 481.309 336.563 521.639 339.597C536.305 340.735 551.35 341.367 566.9 341.746C595.726 342.379 627.459 341.746 658.56 339.218C691.179 336.563 721.142 333.275 747.945 338.838C755.657 340.356 762.737 342.505 769.69 344.907C802.435 356.792 830.375 380.435 863.12 406.606C867.292 410.02 871.591 413.813 875.763 417.859C884.992 427.088 893.969 437.456 902.313 447.823C914.829 463.88 926.84 479.178 939.988 492.833C959.079 512.683 980.445 529.119 1002.82 541.383C1025.96 554.026 1050.61 562.497 1077.67 566.164C1104.47 569.83 1133.04 567.302 1161.11 560.727C1175.14 557.44 1190.06 553.52 1203.72 551.75C1213.45 550.486 1222.55 550.739 1230.52 552.888C1252.64 558.957 1258.46 571.853 1268.95 581.209C1270.22 582.474 1271.73 583.611 1273.12 584.749C1288.8 596.887 1315.22 605.737 1347.97 604.22C1353.41 603.967 1358.97 603.461 1364.53 602.703C1393.23 598.91 1425.22 594.864 1456.32 593.094C1469.21 592.335 1482.11 591.83 1494.88 591.324C1519.28 590.439 1543.68 590.439 1568.08 590.059C1587.17 589.554 1605.25 586.393 1623.46 583.611C1639.89 581.209 1656.58 579.186 1674.03 580.577C1689.96 581.968 1705.51 584.37 1721.31 584.244C1736.99 584.117 1753.3 581.336 1767.46 572.865" stroke="url(#paint14_linear_20_40)"/>
<path d="M-56.1343 284.346C-28.6995 277.772 6.44736 263.991 40.9621 247.428C62.3283 237.061 83.6946 226.061 104.808 215.946C119.094 209.119 133.633 202.797 147.035 199.763C150.448 198.878 153.862 198.499 157.149 197.993C179.906 194.959 195.962 197.74 213.283 202.418C227.063 205.958 242.235 211.142 258.923 216.199C280.795 223.027 306.333 230.36 331.113 246.037C360.318 264.623 383.707 291.047 409.751 308.116C444.772 331.253 482.953 339.091 523.03 343.517C537.696 345.16 552.741 346.425 568.165 347.183C597.117 348.574 628.977 348.447 660.078 345.792C692.696 343.011 722.659 338.712 749.588 343.011C757.301 344.275 764.507 345.919 771.46 348.068C804.837 358.183 833.789 380.056 867.419 405.342C871.717 408.503 876.016 412.169 880.314 416.215C889.67 425.318 898.773 435.686 906.991 446.18C919.381 462.363 931.138 478.041 943.781 491.948C962.492 512.304 983.227 529.372 1005.35 542.395C1027.98 555.796 1052.26 565.026 1079.06 569.325C1105.61 573.623 1134.18 571.348 1162.25 564.9C1176.41 561.739 1191.2 557.693 1204.73 555.67C1214.46 554.279 1223.44 554.279 1231.53 556.049C1253.78 560.98 1260.36 571.98 1271.23 579.819C1272.62 580.83 1274.14 581.715 1275.65 582.726C1291.84 592.715 1318.13 599.668 1350.62 596.887C1356.06 596.508 1361.5 595.875 1367.06 594.99C1395.51 590.439 1427.49 586.646 1458.59 585.129C1471.49 584.497 1484.39 584.244 1497.03 583.864C1521.55 583.359 1545.83 583.738 1570.23 583.612C1589.19 583.485 1607.27 580.577 1625.48 578.175C1641.91 575.773 1658.6 573.876 1676.05 575.267C1691.85 576.405 1707.4 578.554 1723.21 578.175C1738.88 577.922 1755.07 575.014 1769.23 566.543" stroke="url(#paint15_linear_20_40)"/>
<path d="M-55.8813 290.921C-28.0673 285.99 7.58528 272.967 42.2264 256.531C63.8455 246.29 85.2118 235.164 106.199 224.67C120.359 217.59 134.898 211.015 148.173 207.475C151.586 206.59 155 205.958 158.16 205.452C181.044 201.154 197.227 202.418 215.053 205.579C229.086 208.107 244.51 212.28 261.452 216.452C283.577 222.015 309.494 228.463 334.527 244.014C363.984 262.473 386.868 289.656 412.533 307.736C446.794 332.011 484.596 341.494 524.421 347.436C538.96 349.585 554.131 351.355 569.556 352.493C598.508 354.769 630.367 355.275 661.468 352.367C694.213 349.332 724.05 344.275 751.105 347.309C758.944 348.194 766.15 349.459 773.357 351.229C807.239 359.573 837.329 379.676 871.717 403.951C876.142 406.985 880.567 410.652 884.866 414.698C894.348 423.548 903.577 433.916 911.668 444.536C923.932 460.846 935.31 476.776 947.7 491.063C965.906 511.924 986.134 529.625 1007.88 543.406C1030 557.44 1053.77 567.554 1080.32 572.485C1106.75 577.29 1135.45 575.52 1163.51 569.198C1177.55 565.911 1192.21 561.865 1205.87 559.716C1215.47 558.072 1224.45 557.819 1232.42 559.21C1254.79 563.003 1262.13 572.232 1273.63 578.428C1275.02 579.186 1276.54 579.945 1278.06 580.703C1294.74 588.669 1320.91 593.599 1353.28 589.68C1358.59 589.174 1364.03 588.289 1369.59 587.278C1397.91 581.968 1429.77 578.428 1460.87 577.29C1473.77 576.784 1486.66 576.658 1499.3 576.531C1523.7 576.152 1547.98 576.91 1572.25 577.163C1591.22 577.29 1609.3 574.761 1627.5 572.612C1643.94 570.462 1660.5 568.692 1677.95 569.83C1693.88 570.968 1709.43 572.738 1725.1 572.232C1740.78 571.6 1756.84 568.566 1771 560.221" stroke="url(#paint16_linear_20_40)"/>
<path d="M-55.502 297.369C-27.435 294.081 8.72323 281.944 43.6172 265.634C65.2363 255.52 86.6026 244.141 107.59 233.394C121.749 226.187 136.036 219.234 149.311 215.188C152.724 214.176 156.011 213.418 159.298 212.785C182.182 207.475 198.617 206.97 216.823 208.866C230.983 210.257 246.786 213.291 263.98 216.705C286.358 221.004 312.781 226.567 337.941 241.991C367.525 260.324 390.029 288.266 415.188 307.23C448.817 332.643 486.24 343.896 525.938 351.355C540.351 354.01 555.396 356.286 570.82 357.93C599.898 360.964 631.758 361.976 662.986 358.815C695.73 355.78 725.567 349.712 752.749 351.482C760.588 351.987 767.921 352.999 775.127 354.39C809.642 360.838 840.869 379.423 876.016 402.56C880.568 405.468 884.992 409.008 889.417 413.054C899.026 421.778 908.255 432.272 916.346 442.892C928.484 459.328 939.609 475.638 951.62 490.304C969.32 511.545 989.042 529.878 1010.28 544.417C1031.9 559.084 1055.42 569.957 1081.71 575.52C1108.01 581.083 1136.58 579.692 1164.65 573.37C1178.68 570.21 1193.35 566.037 1206.88 563.635C1216.36 561.865 1225.46 561.359 1233.43 562.371C1255.93 565.026 1263.9 572.485 1275.91 577.037C1277.3 577.543 1278.94 578.048 1280.58 578.681C1297.65 584.496 1323.7 587.531 1355.94 582.474C1361.24 581.715 1366.55 580.83 1371.99 579.566C1400.18 573.497 1432.04 570.21 1463.15 569.325C1476.04 568.945 1488.81 569.072 1501.45 569.072C1525.85 569.072 1550 570.21 1574.28 570.715C1593.24 571.095 1611.32 569.072 1629.52 567.049C1645.96 565.152 1662.52 563.509 1679.97 564.52C1695.77 565.405 1711.32 566.922 1727 566.164C1742.55 565.405 1758.61 562.118 1772.77 553.9" stroke="url(#paint17_linear_20_40)"/>
<path d="M-55.249 303.943C-26.8028 302.3 9.86116 290.921 45.008 274.737C66.7535 264.623 88.1198 253.244 108.98 242.118C123.014 234.658 137.3 227.578 150.449 223.027C153.862 221.762 157.149 221.004 160.31 220.119C183.193 213.671 200.008 210.636 218.593 212.027C233.006 213.165 249.062 214.429 266.509 216.831C289.266 220.119 315.942 224.544 341.354 239.968C371.191 258.175 393.189 286.875 417.969 306.851C450.967 333.402 487.884 346.298 527.329 355.275C541.742 358.562 556.787 361.217 572.211 363.366C601.289 367.159 633.149 368.677 664.503 365.389C697.248 362.102 727.085 355.275 754.266 355.78C762.231 355.907 769.691 356.539 776.897 357.55C812.044 362.228 844.409 379.044 880.315 401.17C884.993 404.078 889.544 407.491 893.969 411.411C903.704 420.008 913.059 430.502 921.024 441.375C933.035 457.811 943.781 474.374 955.539 489.419C972.733 511.166 991.95 530.131 1012.81 545.429C1033.92 560.727 1056.93 572.485 1083.1 578.681C1109.15 584.876 1137.72 583.738 1165.79 577.543C1179.82 574.382 1194.36 570.336 1207.89 567.554C1217.37 565.658 1226.35 564.899 1234.31 565.405C1256.94 567.049 1265.79 572.612 1278.18 575.52C1279.7 575.899 1281.34 576.278 1282.99 576.658C1300.56 580.324 1326.6 581.336 1358.59 575.267C1363.77 574.382 1369.08 573.244 1374.52 571.853C1402.59 565.152 1434.32 561.865 1465.42 561.486C1478.32 561.233 1491.09 561.486 1503.73 561.612C1528 561.992 1552.15 563.509 1576.42 564.394C1595.26 565.026 1613.22 563.256 1631.55 561.486C1647.98 559.842 1664.54 558.199 1681.87 559.084C1697.67 559.842 1713.22 561.106 1728.9 560.095C1744.45 559.21 1760.38 555.796 1774.54 547.452" stroke="url(#paint18_linear_20_40)"/>
<path d="M-54.9961 310.518C-26.0442 310.518 10.9991 299.897 46.3988 283.84C68.1443 273.852 89.5106 262.347 110.371 250.968C124.405 243.256 138.438 235.796 151.586 230.739C155 229.475 158.287 228.463 161.448 227.452C184.331 219.866 201.273 216.326 220.363 215.314C235.029 214.556 251.338 215.567 269.038 217.084C292.047 219.107 319.229 222.647 344.768 237.945C374.731 256.025 396.35 285.484 420.624 306.345C452.99 334.16 489.654 348.7 528.72 359.194C543.133 362.987 558.051 366.274 573.475 368.677C602.68 373.481 634.54 375.377 666.02 371.964C698.765 368.424 728.475 360.711 755.91 359.953C763.749 359.826 771.334 359.953 778.793 360.585C814.446 363.619 847.823 378.665 884.74 399.779C889.291 402.56 893.969 405.848 898.52 409.767C908.382 418.238 917.864 428.732 925.702 439.731C937.713 456.294 947.954 473.11 959.458 488.534C976.02 510.786 994.858 530.383 1015.34 546.314C1035.95 562.497 1058.58 575.014 1084.37 581.841C1110.41 588.669 1138.99 587.91 1166.93 581.715C1180.96 578.681 1195.5 574.508 1208.9 571.6C1218.38 569.577 1227.36 568.819 1235.32 568.566C1257.95 568.06 1267.56 572.865 1280.46 574.129C1282.1 574.255 1283.75 574.382 1285.52 574.635C1303.34 576.278 1329.39 575.267 1361.25 568.06C1366.43 566.922 1371.74 565.658 1377.05 564.267C1404.99 556.681 1436.72 553.647 1467.7 553.52C1480.47 553.394 1493.36 553.773 1505.88 554.153C1530.15 554.785 1554.3 556.681 1578.45 557.946C1597.29 558.831 1615.24 557.44 1633.57 555.923C1650.01 554.532 1666.57 553.015 1683.89 553.773C1699.69 554.279 1715.24 555.291 1730.79 554.153C1746.34 552.888 1762.15 549.348 1776.31 541.13" stroke="url(#paint19_linear_20_40)"/>
<path d="M-54.6172 317.092C-25.4124 318.736 12.1365 309.001 47.7891 293.07C69.6611 283.082 91.0273 271.45 111.888 259.692C125.795 251.853 139.702 244.014 152.724 238.451C156.011 237.061 159.298 235.923 162.459 234.785C185.469 226.061 202.663 220.877 222.006 218.475C236.925 216.705 253.613 216.705 271.566 217.337C294.955 218.222 322.39 220.751 348.181 235.923C378.397 253.75 399.51 284.093 423.405 305.966C455.012 334.919 491.297 351.229 530.11 362.987C544.523 367.412 559.441 371.205 574.865 374.113C604.07 379.676 635.93 382.078 667.41 378.538C700.282 374.872 729.992 366.274 757.427 364.251C765.392 363.746 773.104 363.493 780.563 363.746C816.848 364.884 851.362 378.285 889.038 398.515C893.716 401.043 898.52 404.33 903.071 408.123C913.185 416.468 922.541 426.962 930.38 438.088C942.264 454.777 952.252 471.972 963.377 487.649C979.434 510.407 997.765 530.636 1017.87 547.325C1037.97 564.141 1060.09 577.543 1085.76 585.002C1111.55 592.462 1140.12 591.956 1168.06 585.887C1182.1 582.979 1196.64 578.681 1209.91 575.52C1219.39 573.371 1228.24 571.98 1236.33 571.727C1259.09 570.968 1269.33 573.118 1282.73 572.738C1284.5 572.738 1286.15 572.612 1287.92 572.612C1306.25 572.106 1332.29 569.198 1363.9 560.854C1368.96 559.589 1374.27 558.072 1379.58 556.555C1407.26 548.21 1439 545.429 1469.97 545.555C1482.74 545.682 1495.64 546.188 1508.15 546.693C1532.3 547.705 1556.32 549.981 1580.47 551.498C1599.31 552.762 1617.26 551.751 1635.59 550.486C1652.03 549.222 1668.59 547.831 1685.78 548.337C1701.59 548.843 1717.14 549.475 1732.69 548.084C1748.11 546.693 1763.92 543.027 1778.08 534.809" stroke="url(#paint20_linear_20_40)"/>
<path d="M-54.3643 323.667C-24.7802 326.954 13.2745 317.977 49.0535 302.173C71.0518 292.311 92.5445 280.553 113.279 268.416C127.059 260.324 140.966 252.232 153.862 246.29C157.149 244.773 160.436 243.382 163.597 242.118C186.607 232.256 203.927 225.555 223.776 221.762C238.948 218.854 255.889 217.843 273.968 217.464C297.736 217.211 325.677 218.854 351.721 233.9C381.937 251.6 402.798 282.703 426.187 305.587C457.035 335.678 492.94 353.631 531.627 366.907C545.787 371.837 560.706 376.136 576.13 379.55C605.335 385.871 637.447 388.779 668.928 385.113C701.799 381.193 731.383 371.711 759.07 368.55C767.035 367.539 774.747 367.033 782.46 366.907C819.25 366.274 854.902 377.906 893.336 397.124C898.141 399.526 902.945 402.687 907.623 406.48C917.863 414.698 927.345 425.192 935.057 436.444C946.815 453.26 956.424 470.707 967.17 486.764C982.847 510.028 1000.67 530.889 1020.27 548.337C1039.87 565.784 1061.74 580.071 1087.15 588.163C1112.81 596.255 1141.26 596.128 1169.33 590.186C1183.23 587.152 1197.65 582.853 1210.92 579.566C1220.4 577.163 1229.25 575.52 1237.22 574.888C1260.1 572.991 1271.23 573.244 1285.14 571.347C1286.78 571.095 1288.55 570.842 1290.45 570.589C1309.16 568.06 1335.07 563.129 1366.43 553.647C1371.61 552.13 1376.8 550.613 1382.11 548.843C1409.67 539.739 1441.27 537.211 1472.25 537.717C1485.02 537.843 1497.79 538.602 1510.3 539.234C1534.58 540.498 1558.47 543.153 1582.49 545.176C1601.2 546.567 1619.28 545.935 1637.62 544.923C1654.05 543.912 1670.61 542.647 1687.81 542.9C1703.48 543.28 1719.03 543.659 1734.59 542.015C1750.01 540.372 1765.69 536.579 1779.85 528.487" stroke="url(#paint21_linear_20_40)"/>
<path d="M-54.1113 330.241C-24.148 335.172 14.5388 326.954 50.4442 311.276C72.569 301.541 93.9353 289.656 114.669 277.14C128.45 268.922 142.104 260.577 155 254.003C158.287 252.359 161.574 250.842 164.608 249.451C187.618 238.451 205.318 230.233 225.546 225.05C240.97 221.004 258.165 218.854 276.497 217.716C300.518 216.199 328.838 216.831 355.135 231.877C385.604 249.451 405.958 281.312 428.842 305.081C459.058 336.436 494.584 356.033 533.018 370.826C547.178 376.263 562.096 381.193 577.521 384.86C606.725 392.067 638.838 395.607 670.445 391.561C703.316 387.641 732.9 377.148 760.588 372.722C768.679 371.458 776.517 370.573 784.23 370.067C821.652 367.539 858.442 377.527 897.635 395.733C902.566 398.009 907.496 401.17 912.301 404.836C922.541 412.928 932.023 423.422 939.735 434.801C951.367 451.743 960.722 469.443 971.089 485.879C986.261 509.649 1003.71 531.142 1022.8 549.348C1041.89 567.428 1063.26 582.6 1088.41 591.324C1113.95 600.048 1142.53 600.301 1170.47 594.358C1184.37 591.45 1198.79 587.025 1212.06 583.485C1221.29 580.956 1230.27 579.06 1238.23 577.922C1261.24 574.888 1273 573.497 1287.41 569.957C1289.18 569.451 1290.95 568.945 1292.85 568.566C1312.06 564.015 1337.86 557.061 1369.08 546.44C1374.14 544.797 1379.32 543.027 1384.63 541.13C1411.94 531.395 1443.55 528.866 1474.52 529.751C1487.29 530.131 1500.06 531.016 1512.58 531.774C1536.73 533.418 1560.62 536.452 1584.64 538.728C1603.23 540.372 1621.31 540.119 1639.64 539.36C1656.07 538.602 1672.64 537.337 1689.7 537.59C1705.51 537.717 1720.93 537.843 1736.48 536.073C1751.91 534.176 1767.46 530.131 1781.62 522.165" stroke="url(#paint22_linear_20_40)"/>
<path d="M-53.7319 336.816C-23.3893 343.39 15.6768 335.931 51.8351 320.38C74.0863 310.771 95.4526 298.633 116.06 285.99C129.714 277.393 143.369 268.795 156.138 261.715C159.425 259.945 162.586 258.428 165.746 256.784C188.756 244.647 206.709 234.911 227.316 228.21C242.993 223.153 260.44 219.992 279.025 217.969C303.426 215.314 332.125 214.935 358.548 229.854C389.144 247.302 409.119 279.921 431.623 304.702C461.207 337.069 496.228 358.562 534.409 374.745C548.569 380.814 563.487 386.124 578.785 390.297C608.116 398.262 640.229 402.308 671.836 398.135C704.707 393.963 734.291 382.711 762.231 377.021C770.323 375.378 778.288 373.987 786 373.102C824.054 368.93 861.856 377.274 901.934 394.342C906.991 396.618 912.048 399.526 916.852 403.193C927.219 411.158 936.828 421.778 944.413 433.157C955.918 450.225 964.895 468.305 975.009 484.994C989.674 509.269 1006.62 531.395 1025.33 550.36C1043.91 569.198 1064.77 585.129 1089.81 594.485C1115.22 603.841 1143.66 604.346 1171.6 598.531C1185.51 595.623 1199.8 591.324 1213.07 587.405C1222.3 584.749 1231.15 582.6 1239.12 581.083C1262.25 576.911 1274.89 573.75 1289.69 568.44C1291.58 567.808 1293.35 567.175 1295.38 566.543C1315.1 559.842 1340.76 550.992 1371.74 539.234C1376.8 537.337 1381.85 535.441 1387.16 533.418C1414.34 522.924 1445.82 520.648 1476.8 521.913C1489.57 522.418 1502.34 523.43 1514.73 524.315C1538.88 526.338 1562.77 529.625 1586.67 532.28C1605.25 534.303 1623.33 534.429 1641.66 533.797C1658.1 533.291 1674.66 532.28 1691.73 532.154C1707.4 532.154 1722.95 532.154 1738.38 530.004C1753.68 527.981 1769.23 523.809 1783.39 515.844" stroke="url(#paint23_linear_20_40)"/>
<path d="M-53.479 343.39C-22.7571 351.608 16.8147 344.907 53.2258 329.483C75.4771 320 96.8433 307.863 117.451 294.714C131.105 285.99 144.633 277.013 157.276 269.554C160.563 267.657 163.723 265.887 166.758 264.117C189.894 250.842 208.1 239.589 229.087 231.498C244.89 225.302 262.716 221.13 281.554 218.096C306.207 214.303 335.286 213.039 361.962 227.831C392.684 245.152 412.28 278.53 434.278 304.196C463.23 337.827 497.871 360.964 535.8 378.665C549.96 385.239 564.752 391.055 580.176 395.733C609.507 404.583 641.619 409.009 673.353 404.71C706.224 400.285 735.808 388.147 763.748 381.193C771.966 379.171 779.931 377.527 787.896 376.263C826.457 370.194 865.396 376.895 906.232 393.078C911.416 395.101 916.473 398.009 921.404 401.549C931.897 409.388 941.632 420.008 949.091 431.513C960.47 448.708 969.193 467.041 978.928 484.109C993.088 508.89 1009.52 531.521 1027.86 551.371C1045.93 570.842 1066.42 587.657 1091.2 597.646C1116.35 607.634 1144.93 608.519 1172.74 602.703C1186.65 599.921 1200.93 595.496 1214.08 591.45C1223.31 588.542 1232.16 586.14 1240.13 584.244C1263.26 578.807 1276.67 573.876 1291.96 567.049C1293.86 566.164 1295.88 565.279 1297.78 564.52C1318.01 555.796 1343.55 544.923 1374.39 532.027C1379.32 530.004 1384.51 527.855 1389.69 525.706C1416.75 514.453 1448.1 512.43 1479.08 513.947C1491.84 514.58 1504.61 515.844 1517 516.982C1541.02 519.131 1564.79 522.924 1588.69 525.832C1607.27 528.108 1625.35 528.613 1643.56 528.234C1660.12 527.981 1676.68 526.97 1693.62 526.843C1709.3 526.717 1724.85 526.338 1740.27 523.936C1755.57 521.66 1771 517.361 1785.16 509.522" stroke="url(#paint24_linear_20_40)"/>
<path d="M-53.1001 349.838C-22.1254 359.826 17.9522 354.01 54.4897 338.712C76.9938 329.23 98.3601 316.839 118.841 303.437C132.369 294.587 145.77 285.231 158.413 277.266C161.574 275.243 164.861 273.347 167.895 271.45C190.905 257.037 209.363 244.267 230.856 234.658C246.912 227.452 264.865 222.268 284.082 218.349C309.115 213.418 338.572 211.142 365.375 225.808C396.35 242.876 415.44 277.14 437.059 303.817C465.253 338.586 499.515 363.366 537.316 382.584C551.224 389.664 566.142 395.986 581.44 401.17C610.897 410.778 643.01 415.709 674.87 411.284C707.741 406.733 737.198 393.584 765.392 385.492C773.61 383.09 781.701 381.067 789.666 379.423C828.858 371.585 868.936 376.515 910.531 391.687C915.714 393.584 921.024 396.365 925.955 399.905C936.575 407.618 946.31 418.238 953.769 429.87C965.021 447.191 973.365 465.777 982.847 483.224C996.501 508.511 1012.43 531.774 1030.26 552.256C1047.83 572.485 1067.93 590.312 1092.46 600.68C1117.62 611.427 1146.07 612.564 1173.88 607.001C1187.91 604.093 1202.07 599.668 1215.09 595.37C1224.32 592.335 1233.05 589.68 1241.01 587.404C1264.4 580.83 1278.43 574.129 1294.24 565.658C1296.26 564.562 1298.28 563.509 1300.31 562.497C1320.91 551.751 1346.45 538.854 1377.05 524.82C1381.98 522.545 1387.04 520.269 1392.22 517.993C1419.02 505.982 1450.5 504.212 1481.35 506.108C1494.12 506.867 1506.76 508.131 1519.15 509.522C1543.17 512.051 1566.94 516.223 1590.84 519.51C1609.3 521.912 1627.37 522.798 1645.58 522.798C1662.14 522.545 1678.7 521.66 1695.65 521.407C1711.32 521.154 1726.75 520.522 1742.17 517.993C1757.47 515.464 1772.77 510.913 1786.93 503.201" stroke="url(#paint25_linear_20_40)"/>
<path d="M-52.8472 356.413C-21.4931 368.044 19.0901 362.987 55.8805 347.815C78.3846 338.459 99.7509 325.942 120.232 312.161C133.76 303.058 147.035 293.449 159.551 284.978C162.712 282.829 165.872 280.806 168.907 278.783C191.917 263.232 210.754 248.945 232.5 237.946C248.935 229.601 267.141 223.279 286.611 218.601C311.896 212.406 341.733 209.245 368.789 223.785C399.89 240.727 418.601 275.749 439.841 303.311C467.402 339.344 501.158 365.895 538.707 386.503C552.614 394.089 567.406 401.043 582.83 406.48C612.288 416.974 644.401 422.41 676.387 417.732C709.258 413.054 738.716 399.147 766.909 389.791C775.253 387.009 783.345 384.481 791.436 382.584C831.261 372.849 872.349 376.136 914.829 390.296C920.139 392.066 925.449 394.848 930.506 398.262C941.252 405.848 951.114 416.468 958.447 428.226C969.572 445.674 977.664 464.639 986.766 482.339C999.915 508.131 1015.34 532.027 1032.79 553.268C1049.85 574.129 1069.58 592.841 1093.85 603.841C1118.76 615.219 1147.2 616.737 1175.14 611.174C1189.05 608.392 1203.08 603.967 1216.11 599.289C1225.34 596.128 1234.06 593.094 1242.02 590.439C1265.41 582.726 1280.33 574.382 1296.64 564.267C1298.66 563.003 1300.69 561.739 1302.71 560.474C1323.82 547.578 1349.23 532.786 1379.7 517.614C1384.51 515.212 1389.56 512.809 1394.62 510.281C1421.42 497.637 1452.78 495.867 1483.63 498.143C1496.4 499.028 1509.04 500.545 1521.43 502.063C1545.32 504.844 1569.09 509.396 1592.86 513.062C1611.32 515.844 1629.4 517.108 1647.6 517.234C1664.17 517.234 1680.73 516.476 1697.54 516.097C1713.22 515.591 1728.77 514.706 1744.07 511.924C1759.37 509.143 1774.66 504.591 1788.7 496.879" stroke="url(#paint26_linear_20_40)"/>
<path d="M-52.5942 362.987C-20.8609 376.136 20.228 371.964 57.2713 356.918C79.9018 347.689 101.268 335.046 121.623 320.885C135.024 311.656 148.299 301.794 160.689 292.817C163.85 290.541 167.01 288.266 170.045 286.116C193.054 269.301 212.145 253.623 234.27 241.106C250.958 231.75 269.417 224.417 289.139 218.854C314.678 211.395 345.02 207.222 372.202 221.762C403.556 238.578 421.888 274.358 442.496 302.932C469.425 339.976 502.802 368.297 540.098 390.423C554.005 398.515 568.797 405.974 584.221 411.916C613.552 423.169 645.918 429.111 677.777 424.307C710.775 419.376 740.106 404.583 768.552 393.963C776.897 390.802 785.114 388.021 793.332 385.745C833.663 374.113 875.889 375.883 919.128 388.906C924.564 390.549 930 393.204 935.057 396.618C946.057 404.078 955.918 414.698 963.124 426.582C974.124 444.157 981.836 463.374 990.559 481.454C1003.33 507.752 1018.25 532.28 1035.31 554.279C1051.88 575.773 1071.09 595.37 1095.11 607.001C1119.89 619.012 1148.47 620.783 1176.28 615.346C1190.19 612.564 1204.22 608.139 1217.24 603.335C1226.35 599.921 1234.94 596.634 1243.04 593.6C1266.42 584.749 1282.1 574.508 1298.92 562.75C1301.02 561.317 1303.13 559.884 1305.24 558.451C1326.86 543.532 1352.14 526.717 1382.23 510.407C1387.16 507.752 1392.09 505.223 1397.15 502.568C1423.7 489.166 1455.05 487.649 1485.9 490.304C1498.67 491.316 1511.31 492.959 1523.58 494.603C1547.6 497.764 1571.11 502.695 1594.88 506.614C1613.34 509.649 1631.29 511.292 1649.63 511.671C1666.19 511.924 1682.75 511.166 1699.56 510.66C1715.12 510.028 1730.67 508.89 1745.96 505.856C1761.13 502.948 1776.43 498.143 1790.47 490.557" stroke="url(#paint27_linear_20_40)"/>
<path d="M-52.2148 369.562C-20.1023 384.354 21.366 380.94 58.6621 366.021C81.2926 356.918 102.659 344.149 123.014 329.735C136.415 320.127 149.437 310.012 161.827 300.53C164.988 298.127 168.022 295.852 171.056 293.449C194.066 275.496 213.536 258.301 236.04 244.394C252.981 233.9 271.692 225.555 291.542 218.981C317.586 210.51 348.181 205.326 375.616 219.739C407.096 236.428 425.049 272.967 445.277 302.426C471.574 340.735 504.445 370.699 541.489 394.216C555.396 403.066 570.061 410.905 585.486 417.353C614.943 429.49 647.309 435.812 679.295 430.881C712.292 425.824 741.497 410.02 770.07 398.262C778.54 394.722 786.758 391.561 795.102 388.779C836.065 375.377 879.43 375.504 923.426 387.515C928.989 389.159 934.426 391.687 939.609 395.101C950.735 402.308 960.596 412.928 967.802 424.939C978.675 442.639 986.134 462.11 994.479 480.696C1006.74 507.373 1021.15 532.533 1037.72 555.291C1053.9 577.416 1072.61 597.898 1096.51 610.162C1121.16 622.805 1149.61 624.955 1177.42 619.518C1191.33 616.863 1205.23 612.312 1218.26 607.254C1227.23 603.714 1235.96 600.174 1243.92 596.76C1267.44 586.646 1284 574.761 1301.19 561.359C1303.3 559.674 1305.45 558.03 1307.64 556.428C1329.76 539.487 1354.92 520.648 1384.89 503.2C1389.69 500.419 1394.62 497.68 1399.68 494.982C1426.1 480.696 1457.33 479.431 1488.18 482.339C1500.95 483.477 1513.59 485.374 1525.85 487.144C1549.75 490.557 1573.26 495.867 1597.03 500.166C1615.24 503.58 1633.32 505.476 1651.65 506.108C1668.21 506.614 1684.77 505.982 1701.46 505.223C1717.14 504.591 1732.56 503.074 1747.86 499.913C1763.03 496.752 1778.2 491.695 1792.24 484.236" stroke="url(#paint28_linear_20_40)"/>
<path d="M-51.9619 376.136C-19.47 392.572 22.5039 390.044 59.9264 375.125C82.8098 366.148 104.176 353.252 124.404 338.459C137.806 328.724 150.701 318.23 162.965 308.242C166.126 305.713 169.16 303.311 172.194 300.782C195.204 281.691 214.927 262.979 237.81 247.554C255.004 236.049 273.968 226.693 294.07 219.234C320.367 209.498 351.468 203.43 379.029 217.716C410.763 234.153 428.21 271.577 447.932 302.047C473.597 341.494 506.089 373.228 543.006 398.135C556.66 407.491 571.452 415.962 586.876 422.663C616.334 435.686 648.699 442.64 680.812 437.456C713.81 432.146 743.014 415.583 771.713 402.434C780.184 398.641 788.528 394.975 796.872 391.94C838.467 376.768 882.97 375.125 927.725 386.251C933.414 387.641 938.977 390.044 944.16 393.457C955.413 400.538 965.4 411.158 972.48 423.295C983.227 441.122 990.307 460.972 998.398 479.811C1010.16 506.994 1024.19 532.786 1040.25 556.302C1055.92 579.186 1074.25 600.427 1097.9 613.323C1122.3 626.599 1150.87 629.127 1178.56 623.691C1192.46 621.035 1206.37 616.484 1219.27 611.3C1228.24 607.634 1236.84 603.714 1244.93 599.921C1268.57 588.542 1285.77 575.014 1303.47 559.969C1305.66 558.114 1307.89 556.26 1310.17 554.406C1332.8 535.314 1357.83 514.579 1387.54 495.994C1392.35 492.96 1397.23 490.052 1402.21 487.27C1428.38 472.225 1459.61 471.213 1490.45 474.374C1503.1 475.765 1515.74 477.788 1528 479.684C1551.9 483.477 1575.41 489.167 1599.06 493.845C1617.26 497.385 1635.34 499.787 1653.67 500.546C1670.23 501.304 1686.8 500.798 1703.48 499.913C1719.03 499.028 1734.46 497.258 1749.76 493.845C1764.93 490.431 1779.97 485.374 1794.01 477.914" stroke="url(#paint29_linear_20_40)"/>
<path d="M-51.709 382.711C-18.8378 400.79 23.6418 399.02 61.3172 384.354C84.2006 375.377 105.693 362.229 125.795 347.183C139.07 337.321 151.966 326.448 164.103 315.954C167.137 313.426 170.298 310.771 173.206 308.116C196.215 287.886 216.317 267.531 239.58 250.842C257.027 238.198 276.244 227.705 296.599 219.486C323.275 208.613 354.755 201.533 382.443 215.694C414.303 232.003 431.497 270.186 450.714 301.541C475.747 342.252 507.733 375.63 544.397 402.055C558.051 411.916 572.717 420.893 588.141 428.1C617.725 441.881 650.09 449.34 682.329 444.03C715.327 438.594 744.405 421.02 773.357 406.733C781.828 402.56 790.172 398.515 798.769 395.101C840.743 378.033 886.383 374.745 932.024 384.86C937.839 386.124 943.402 388.526 948.838 391.814C960.09 398.767 970.205 409.514 977.285 421.652C987.778 439.605 994.479 459.708 1002.32 478.926C1013.57 506.614 1027.1 532.912 1042.77 557.187C1057.95 580.83 1075.77 602.956 1099.16 616.484C1123.43 630.518 1152.01 633.173 1179.7 627.989C1193.6 625.334 1207.51 620.783 1220.28 615.22C1229.25 611.427 1237.85 607.254 1245.82 603.082C1269.59 590.565 1287.54 575.141 1305.87 558.578C1308.06 556.471 1310.29 554.406 1312.57 552.383C1335.71 531.269 1360.61 508.637 1390.2 488.787C1394.92 485.584 1399.76 482.508 1404.74 479.558C1430.78 463.754 1461.88 462.995 1492.73 466.535C1505.37 467.926 1518.02 470.202 1530.28 472.225C1554.05 476.397 1577.56 482.339 1601.08 487.396C1619.28 491.189 1637.36 493.971 1655.69 494.982C1672.13 495.994 1688.69 495.615 1705.38 494.477C1721.06 493.465 1736.48 491.442 1751.65 487.776C1766.7 484.236 1781.74 478.926 1795.78 471.466" stroke="url(#paint30_linear_20_40)"/>
<path d="M-51.3301 389.285C-18.2061 409.008 24.7793 407.997 62.7076 393.457C85.7174 384.607 107.084 371.332 127.186 355.907C140.46 345.792 153.103 334.793 165.24 323.793C168.275 321.012 171.309 318.23 174.343 315.449C197.226 294.081 217.708 272.209 241.223 254.002C259.05 240.348 278.519 228.842 299.127 219.613C326.056 207.602 357.916 199.637 385.856 213.671C417.969 229.854 434.657 268.795 453.495 301.162C477.769 343.011 509.376 378.159 545.787 405.974C559.441 416.468 574.107 425.824 589.531 433.536C618.989 448.202 651.481 456.041 683.72 450.478C716.844 444.915 745.922 426.456 774.874 410.905C783.471 406.353 791.942 402.055 800.539 398.262C843.145 379.297 889.923 374.492 936.322 383.469C942.137 384.607 947.953 386.883 953.389 390.17C964.768 396.997 974.882 407.744 981.962 420.008C992.329 438.088 998.777 458.57 1006.24 478.04C1016.98 506.235 1030 533.165 1045.3 558.199C1059.97 582.474 1077.29 605.484 1100.55 619.645C1124.7 634.311 1153.14 637.345 1180.96 632.161C1194.74 629.506 1208.52 624.955 1221.29 619.139C1230.27 615.22 1238.74 610.794 1246.83 606.116C1270.6 592.462 1289.43 575.393 1308.15 557.187C1310.42 554.911 1312.74 552.636 1315.1 550.36C1338.61 527.223 1363.52 502.568 1392.85 481.581C1397.57 478.209 1402.38 474.964 1407.26 471.845C1433.06 455.283 1464.28 454.651 1495.01 458.57C1507.65 460.214 1520.29 462.616 1532.55 464.765C1556.2 469.19 1579.59 475.638 1603.1 480.948C1621.31 485.121 1639.39 488.155 1657.72 489.546C1674.15 490.684 1690.71 490.304 1707.4 489.167C1722.95 487.902 1738.38 485.626 1753.55 481.833C1768.59 477.914 1783.51 472.604 1797.55 465.144" stroke="url(#paint31_linear_20_40)"/>
<path d="M-51.0771 395.86C-17.4474 417.227 25.9172 416.974 64.0983 402.56C87.1081 393.837 108.601 380.435 128.576 364.757C141.725 354.39 154.368 343.011 166.378 331.506C169.412 328.64 172.405 325.732 175.355 322.782C198.238 300.277 219.098 276.887 242.993 257.29C261.072 242.497 280.795 229.98 301.656 219.866C328.838 206.59 361.203 197.614 389.396 211.648C421.509 227.705 437.944 267.404 456.15 300.656C479.918 343.643 511.02 380.561 547.178 409.894C560.706 420.893 575.371 430.881 590.795 438.847C620.379 454.398 652.871 462.742 685.237 457.053C718.361 451.237 747.313 431.893 776.517 415.204C784.988 410.273 793.585 405.468 802.309 401.296C845.547 380.688 893.463 374.113 940.62 382.078C946.562 383.09 952.378 385.366 957.941 388.526C969.446 395.227 979.686 405.974 986.64 418.364C996.881 436.571 1002.95 457.306 1010.16 477.155C1020.4 505.856 1033.04 533.418 1047.7 559.21C1061.99 584.117 1078.93 608.013 1101.94 622.806C1125.84 638.104 1154.41 641.391 1182.1 636.334C1195.88 633.805 1209.66 629.127 1222.43 623.185C1231.28 619.013 1239.75 614.335 1247.71 609.277C1271.61 594.485 1291.2 575.646 1310.42 555.67C1312.78 553.226 1315.14 550.781 1317.5 548.337C1341.65 523.177 1366.43 496.5 1395.51 474.374C1400.14 470.834 1404.9 467.42 1409.79 464.133C1435.46 446.812 1466.56 446.432 1497.28 450.731C1509.92 452.375 1522.57 454.903 1534.7 457.432C1558.35 462.11 1581.73 468.811 1605.25 474.627C1623.33 478.926 1641.41 482.466 1659.74 483.983C1676.18 485.374 1692.74 485.121 1709.3 483.73C1724.85 482.466 1740.27 479.811 1755.45 475.765C1770.49 471.719 1785.28 466.156 1799.32 458.823" stroke="url(#paint32_linear_20_40)"/>
<path d="M-50.6978 402.308C-16.8152 425.445 27.0552 425.95 65.4891 411.664C88.6254 403.066 109.992 389.538 129.967 373.481C143.116 362.861 155.632 351.229 167.516 339.218C170.55 336.268 173.543 333.233 176.493 330.115C199.249 306.472 220.489 281.565 244.763 260.577C263.095 244.646 283.071 231.118 304.184 220.119C331.746 205.705 364.364 195.717 392.81 209.625C425.175 225.555 441.105 266.014 458.932 300.277C481.941 344.402 512.663 382.963 548.695 413.813C562.096 425.318 576.762 435.812 592.186 444.283C621.77 460.593 654.262 469.443 686.754 463.627C719.878 457.685 748.704 437.456 778.035 419.502C786.632 414.192 795.355 409.008 804.205 404.457C847.823 381.952 897.003 373.734 944.919 380.814C950.988 381.699 956.93 383.722 962.492 386.883C974.124 393.457 984.364 404.204 991.318 416.721C1001.43 435.054 1007.25 456.041 1013.95 476.27C1023.81 505.476 1035.95 533.671 1050.23 560.221C1064.01 585.761 1080.45 610.542 1103.21 625.84C1126.97 641.897 1155.55 645.563 1183.23 640.506C1197.02 637.977 1210.67 633.299 1223.44 627.104C1232.16 622.805 1240.63 617.875 1248.72 612.438C1272.62 596.381 1293.1 575.773 1312.7 554.279C1315.14 551.582 1317.59 548.885 1320.03 546.187C1344.56 519.005 1369.21 490.431 1398.16 467.167C1402.71 463.459 1407.43 459.876 1412.32 456.421C1437.73 438.467 1468.83 438.214 1499.56 442.766C1512.2 444.662 1524.84 447.317 1536.98 449.973C1560.49 454.903 1583.88 462.11 1607.27 468.179C1625.35 472.857 1643.43 476.65 1661.76 478.42C1678.2 480.063 1694.76 479.937 1711.32 478.293C1726.87 476.903 1742.3 473.995 1757.34 469.696C1772.26 465.397 1787.05 459.708 1801.09 452.501" stroke="url(#paint33_linear_20_40)"/>
<path d="M-50.4448 408.882C-16.183 433.663 28.1931 435.053 66.7535 420.767C105.314 406.606 138.817 378.412 168.654 347.057C194.825 319.494 218.719 289.151 246.533 263.738C265.118 246.796 285.347 232.256 306.713 220.245C334.527 204.694 367.651 193.821 396.224 207.602C428.716 223.279 444.266 264.623 461.587 299.771C484.091 345.16 514.307 385.492 550.086 417.732C589.278 453.007 638.838 479.305 688.145 470.202C731.13 462.236 766.783 429.238 805.975 407.618C850.225 383.216 900.417 373.355 949.344 379.423C968.308 381.699 985.882 396.492 995.996 415.077C1005.98 433.663 1011.42 454.903 1017.87 475.385C1027.22 505.097 1038.85 533.924 1052.76 561.233C1066.04 587.404 1081.97 613.07 1104.6 629.001C1140 654.034 1186.52 650.494 1224.45 631.024C1262.38 611.679 1293.35 578.301 1322.43 544.165C1351.51 510.154 1379.83 474.5 1414.85 448.708C1450.5 422.284 1497.41 433.031 1539.13 442.513C1580.85 451.869 1621.43 468.305 1663.79 472.857C1711.07 478.04 1759.37 468.179 1802.86 446.18" stroke="url(#paint34_linear_20_40)"/>
</g>
</g>
<defs>
<linearGradient id="paint0_linear_20_40" x1="-60.6855" y1="80.9167" x2="1742.8" y2="80.9167" gradientUnits="userSpaceOnUse">
<stop stop-color="#F7931E"/>
<stop offset="0.3" stop-color="#9E005D"/>
<stop offset="0.6" stop-color="#00FFFF"/>
<stop offset="0.9" stop-color="#FCEE21"/>
<stop offset="1"/>
</linearGradient>
<linearGradient id="paint1_linear_20_40" x1="-60.4326" y1="89.1348" x2="1744.57" y2="89.1348" gradientUnits="userSpaceOnUse">
<stop stop-color="#F7931E"/>
<stop offset="0.3" stop-color="#9E005D"/>
<stop offset="0.6" stop-color="#00FFFF"/>
<stop offset="0.9" stop-color="#FCEE21"/>
<stop offset="1"/>
</linearGradient>
<linearGradient id="paint2_linear_20_40" x1="-60.0532" y1="97.3529" x2="1746.34" y2="97.3529" gradientUnits="userSpaceOnUse">
<stop stop-color="#F7931E"/>
<stop offset="0.3" stop-color="#9E005D"/>
<stop offset="0.6" stop-color="#00FFFF"/>
<stop offset="0.9" stop-color="#FCEE21"/>
<stop offset="1"/>
</linearGradient>
<linearGradient id="paint3_linear_20_40" x1="-59.8008" y1="105.571" x2="1747.99" y2="105.571" gradientUnits="userSpaceOnUse">
<stop stop-color="#F7931E"/>
<stop offset="0.3" stop-color="#9E005D"/>
<stop offset="0.6" stop-color="#00FFFF"/>
<stop offset="0.9" stop-color="#FCEE21"/>
<stop offset="1"/>
</linearGradient>
<linearGradient id="paint4_linear_20_40" x1="-59.4214" y1="113.663" x2="1749.76" y2="113.663" gradientUnits="userSpaceOnUse">
<stop stop-color="#F7931E"/>
<stop offset="0.3" stop-color="#9E005D"/>
<stop offset="0.6" stop-color="#00FFFF"/>
<stop offset="0.9" stop-color="#FCEE21"/>
<stop offset="1"/>
</linearGradient>
<linearGradient id="paint5_linear_20_40" x1="-59.1685" y1="121.628" x2="1751.53" y2="121.628" gradientUnits="userSpaceOnUse">
<stop stop-color="#F7931E"/>
<stop offset="0.3" stop-color="#9E005D"/>
<stop offset="0.6" stop-color="#00FFFF"/>
<stop offset="0.9" stop-color="#FCEE21"/>
<stop offset="1"/>
</linearGradient>
<linearGradient id="paint6_linear_20_40" x1="-58.9155" y1="129.593" x2="1753.3" y2="129.593" gradientUnits="userSpaceOnUse">
<stop stop-color="#F7931E"/>
<stop offset="0.3" stop-color="#9E005D"/>
<stop offset="0.6" stop-color="#00FFFF"/>
<stop offset="0.9" stop-color="#FCEE21"/>
<stop offset="1"/>
</linearGradient>
<linearGradient id="paint7_linear_20_40" x1="-58.5361" y1="137.558" x2="1755.07" y2="137.558" gradientUnits="userSpaceOnUse">
<stop stop-color="#F7931E"/>
<stop offset="0.3" stop-color="#9E005D"/>
<stop offset="0.6" stop-color="#00FFFF"/>
<stop offset="0.9" stop-color="#FCEE21"/>
<stop offset="1"/>
</linearGradient>
<linearGradient id="paint8_linear_20_40" x1="-58.2832" y1="145.397" x2="1756.84" y2="145.397" gradientUnits="userSpaceOnUse">
<stop stop-color="#F7931E"/>
<stop offset="0.3" stop-color="#9E005D"/>
<stop offset="0.6" stop-color="#00FFFF"/>
<stop offset="0.9" stop-color="#FCEE21"/>
<stop offset="1"/>
</linearGradient>
<linearGradient id="paint9_linear_20_40" x1="-58.0308" y1="153.236" x2="1758.61" y2="153.236" gradientUnits="userSpaceOnUse">
<stop stop-color="#F7931E"/>
<stop offset="0.3" stop-color="#9E005D"/>
<stop offset="0.6" stop-color="#00FFFF"/>
<stop offset="0.9" stop-color="#FCEE21"/>
<stop offset="1"/>
</linearGradient>
<linearGradient id="paint10_linear_20_40" x1="-57.6514" y1="160.948" x2="1760.38" y2="160.948" gradientUnits="userSpaceOnUse">
<stop stop-color="#F7931E"/>
<stop offset="0.3" stop-color="#9E005D"/>
<stop offset="0.6" stop-color="#00FFFF"/>
<stop offset="0.9" stop-color="#FCEE21"/>
<stop offset="1"/>
</linearGradient>
<linearGradient id="paint11_linear_20_40" x1="-57.3984" y1="168.534" x2="1762.15" y2="168.534" gradientUnits="userSpaceOnUse">
<stop stop-color="#F7931E"/>
<stop offset="0.3" stop-color="#9E005D"/>
<stop offset="0.6" stop-color="#00FFFF"/>
<stop offset="0.9" stop-color="#FCEE21"/>
<stop offset="1"/>
</linearGradient>
<linearGradient id="paint12_linear_20_40" x1="-57.019" y1="175.867" x2="1763.92" y2="175.867" gradientUnits="userSpaceOnUse">
<stop stop-color="#F7931E"/>
<stop offset="0.3" stop-color="#9E005D"/>
<stop offset="0.6" stop-color="#00FFFF"/>
<stop offset="0.9" stop-color="#FCEE21"/>
<stop offset="1"/>
</linearGradient>
<linearGradient id="paint13_linear_20_40" x1="-56.7661" y1="183.327" x2="1765.69" y2="183.327" gradientUnits="userSpaceOnUse">
<stop stop-color="#F7931E"/>
<stop offset="0.3" stop-color="#9E005D"/>
<stop offset="0.6" stop-color="#00FFFF"/>
<stop offset="0.9" stop-color="#FCEE21"/>
<stop offset="1"/>
</linearGradient>
<linearGradient id="paint14_linear_20_40" x1="-56.5137" y1="190.281" x2="1767.46" y2="190.281" gradientUnits="userSpaceOnUse">
<stop stop-color="#F7931E"/>
<stop offset="0.3" stop-color="#9E005D"/>
<stop offset="0.6" stop-color="#00FFFF"/>
<stop offset="0.9" stop-color="#FCEE21"/>
<stop offset="1"/>
</linearGradient>
<linearGradient id="paint15_linear_20_40" x1="-56.1343" y1="196.729" x2="1769.23" y2="196.729" gradientUnits="userSpaceOnUse">
<stop stop-color="#F7931E"/>
<stop offset="0.3" stop-color="#9E005D"/>
<stop offset="0.6" stop-color="#00FFFF"/>
<stop offset="0.9" stop-color="#FCEE21"/>
<stop offset="1"/>
</linearGradient>
<linearGradient id="paint16_linear_20_40" x1="-55.8813" y1="202.671" x2="1771" y2="202.671" gradientUnits="userSpaceOnUse">
<stop stop-color="#F7931E"/>
<stop offset="0.3" stop-color="#9E005D"/>
<stop offset="0.6" stop-color="#00FFFF"/>
<stop offset="0.9" stop-color="#FCEE21"/>
<stop offset="1"/>
</linearGradient>
<linearGradient id="paint17_linear_20_40" x1="-55.502" y1="207.855" x2="1772.77" y2="207.855" gradientUnits="userSpaceOnUse">
<stop stop-color="#F7931E"/>
<stop offset="0.3" stop-color="#9E005D"/>
<stop offset="0.6" stop-color="#00FFFF"/>
<stop offset="0.9" stop-color="#FCEE21"/>
<stop offset="1"/>
</linearGradient>
<linearGradient id="paint18_linear_20_40" x1="-55.249" y1="211.774" x2="1774.54" y2="211.774" gradientUnits="userSpaceOnUse">
<stop stop-color="#F7931E"/>
<stop offset="0.3" stop-color="#9E005D"/>
<stop offset="0.6" stop-color="#00FFFF"/>
<stop offset="0.9" stop-color="#FCEE21"/>
<stop offset="1"/>
</linearGradient>
<linearGradient id="paint19_linear_20_40" x1="-54.9961" y1="215.061" x2="1776.31" y2="215.061" gradientUnits="userSpaceOnUse">
<stop stop-color="#F7931E"/>
<stop offset="0.3" stop-color="#9E005D"/>
<stop offset="0.6" stop-color="#00FFFF"/>
<stop offset="0.9" stop-color="#FCEE21"/>
<stop offset="1"/>
</linearGradient>
<linearGradient id="paint20_linear_20_40" x1="-54.6172" y1="216.958" x2="1778.08" y2="216.958" gradientUnits="userSpaceOnUse">
<stop stop-color="#F7931E"/>
<stop offset="0.3" stop-color="#9E005D"/>
<stop offset="0.6" stop-color="#00FFFF"/>
<stop offset="0.9" stop-color="#FCEE21"/>
<stop offset="1"/>
</linearGradient>
<linearGradient id="paint21_linear_20_40" x1="-54.3643" y1="217.464" x2="1779.85" y2="217.464" gradientUnits="userSpaceOnUse">
<stop stop-color="#F7931E"/>
<stop offset="0.3" stop-color="#9E005D"/>
<stop offset="0.6" stop-color="#00FFFF"/>
<stop offset="0.9" stop-color="#FCEE21"/>
<stop offset="1"/>
</linearGradient>
<linearGradient id="paint22_linear_20_40" x1="-54.1113" y1="217.211" x2="1781.62" y2="217.211" gradientUnits="userSpaceOnUse">
<stop stop-color="#F7931E"/>
<stop offset="0.3" stop-color="#9E005D"/>
<stop offset="0.6" stop-color="#00FFFF"/>
<stop offset="0.9" stop-color="#FCEE21"/>
<stop offset="1"/>
</linearGradient>
<linearGradient id="paint23_linear_20_40" x1="-53.7319" y1="216.579" x2="1783.39" y2="216.579" gradientUnits="userSpaceOnUse">
<stop stop-color="#F7931E"/>
<stop offset="0.3" stop-color="#9E005D"/>
<stop offset="0.6" stop-color="#00FFFF"/>
<stop offset="0.9" stop-color="#FCEE21"/>
<stop offset="1"/>
</linearGradient>
<linearGradient id="paint24_linear_20_40" x1="-53.479" y1="215.694" x2="1785.16" y2="215.694" gradientUnits="userSpaceOnUse">
<stop stop-color="#F7931E"/>
<stop offset="0.3" stop-color="#9E005D"/>
<stop offset="0.6" stop-color="#00FFFF"/>
<stop offset="0.9" stop-color="#FCEE21"/>
<stop offset="1"/>
</linearGradient>
<linearGradient id="paint25_linear_20_40" x1="-53.1001" y1="214.556" x2="1786.93" y2="214.556" gradientUnits="userSpaceOnUse">
<stop stop-color="#F7931E"/>
<stop offset="0.3" stop-color="#9E005D"/>
<stop offset="0.6" stop-color="#00FFFF"/>
<stop offset="0.9" stop-color="#FCEE21"/>
<stop offset="1"/>
</linearGradient>
<linearGradient id="paint26_linear_20_40" x1="-52.8472" y1="213.418" x2="1788.7" y2="213.418" gradientUnits="userSpaceOnUse">
<stop stop-color="#F7931E"/>
<stop offset="0.3" stop-color="#9E005D"/>
<stop offset="0.6" stop-color="#00FFFF"/>
<stop offset="0.9" stop-color="#FCEE21"/>
<stop offset="1"/>
</linearGradient>
<linearGradient id="paint27_linear_20_40" x1="-52.5942" y1="212.027" x2="1790.47" y2="212.027" gradientUnits="userSpaceOnUse">
<stop stop-color="#F7931E"/>
<stop offset="0.3" stop-color="#9E005D"/>
<stop offset="0.6" stop-color="#00FFFF"/>
<stop offset="0.9" stop-color="#FCEE21"/>
<stop offset="1"/>
</linearGradient>
<linearGradient id="paint28_linear_20_40" x1="-52.2148" y1="210.763" x2="1792.24" y2="210.763" gradientUnits="userSpaceOnUse">
<stop stop-color="#F7931E"/>
<stop offset="0.3" stop-color="#9E005D"/>
<stop offset="0.6" stop-color="#00FFFF"/>
<stop offset="0.9" stop-color="#FCEE21"/>
<stop offset="1"/>
</linearGradient>
<linearGradient id="paint29_linear_20_40" x1="-51.9619" y1="209.245" x2="1794.01" y2="209.245" gradientUnits="userSpaceOnUse">
<stop stop-color="#F7931E"/>
<stop offset="0.3" stop-color="#9E005D"/>
<stop offset="0.6" stop-color="#00FFFF"/>
<stop offset="0.9" stop-color="#FCEE21"/>
<stop offset="1"/>
</linearGradient>
<linearGradient id="paint30_linear_20_40" x1="-51.709" y1="207.728" x2="1795.78" y2="207.728" gradientUnits="userSpaceOnUse">
<stop stop-color="#F7931E"/>
<stop offset="0.3" stop-color="#9E005D"/>
<stop offset="0.6" stop-color="#00FFFF"/>
<stop offset="0.9" stop-color="#FCEE21"/>
<stop offset="1"/>
</linearGradient>
<linearGradient id="paint31_linear_20_40" x1="-51.3301" y1="206.211" x2="1797.55" y2="206.211" gradientUnits="userSpaceOnUse">
<stop stop-color="#F7931E"/>
<stop offset="0.3" stop-color="#9E005D"/>
<stop offset="0.6" stop-color="#00FFFF"/>
<stop offset="0.9" stop-color="#FCEE21"/>
<stop offset="1"/>
</linearGradient>
<linearGradient id="paint32_linear_20_40" x1="-51.0771" y1="204.567" x2="1799.32" y2="204.567" gradientUnits="userSpaceOnUse">
<stop stop-color="#F7931E"/>
<stop offset="0.3" stop-color="#9E005D"/>
<stop offset="0.6" stop-color="#00FFFF"/>
<stop offset="0.9" stop-color="#FCEE21"/>
<stop offset="1"/>
</linearGradient>
<linearGradient id="paint33_linear_20_40" x1="-50.6978" y1="202.924" x2="1801.09" y2="202.924" gradientUnits="userSpaceOnUse">
<stop stop-color="#F7931E"/>
<stop offset="0.3" stop-color="#9E005D"/>
<stop offset="0.6" stop-color="#00FFFF"/>
<stop offset="0.9" stop-color="#FCEE21"/>
<stop offset="1"/>
</linearGradient>
<linearGradient id="paint34_linear_20_40" x1="-50.4448" y1="201.28" x2="1802.86" y2="201.28" gradientUnits="userSpaceOnUse">
<stop stop-color="#F7931E"/>
<stop offset="0.3" stop-color="#9E005D"/>
<stop offset="0.6" stop-color="#00FFFF"/>
<stop offset="0.9" stop-color="#FCEE21"/>
<stop offset="1"/>
</linearGradient>
<clipPath id="clip0_20_40">
<rect width="1727" height="971" fill="white"/>
</clipPath>
</defs>
</svg>
