<svg width="557" height="57" viewBox="0 0 557 57" fill="none" xmlns="http://www.w3.org/2000/svg">
<path d="M1 6C1 3.23857 3.23858 1 6 1H551C553.761 1 556 3.23858 556 6V51C556 53.7614 553.761 56 551 56H6C3.23857 56 1 53.7614 1 51V6Z" fill="#006837"/>
<path d="M6 0.75C3.10051 0.75 0.75 3.1005 0.75 6V51C0.75 53.8995 3.1005 56.25 6 56.25H551C553.899 56.25 556.25 53.8995 556.25 51V6C556.25 3.1005 553.899 0.75 551 0.75H6Z" stroke="white" stroke-opacity="0.5" stroke-width="0.5"/>
<path d="M151.943 25.125C151.837 24.1326 151.39 23.3598 150.602 22.8068C149.822 22.2538 148.807 21.9773 147.557 21.9773C146.678 21.9773 145.924 22.1098 145.295 22.375C144.667 22.6402 144.186 23 143.852 23.4545C143.519 23.9091 143.348 24.428 143.341 25.0114C143.341 25.4962 143.451 25.9167 143.67 26.2727C143.898 26.6288 144.205 26.9318 144.591 27.1818C144.977 27.4242 145.405 27.6288 145.875 27.7955C146.345 27.9621 146.818 28.1023 147.295 28.2159L149.477 28.7614C150.356 28.9659 151.201 29.2424 152.011 29.5909C152.83 29.9394 153.561 30.3788 154.205 30.9091C154.856 31.4394 155.371 32.0795 155.75 32.8295C156.129 33.5795 156.318 34.4583 156.318 35.4659C156.318 36.8295 155.97 38.0303 155.273 39.0682C154.576 40.0985 153.568 40.9053 152.25 41.4886C150.939 42.0644 149.352 42.3523 147.489 42.3523C145.678 42.3523 144.106 42.072 142.773 41.5114C141.447 40.9508 140.409 40.1326 139.659 39.0568C138.917 37.9811 138.515 36.6705 138.455 35.125H142.602C142.663 35.9356 142.913 36.6098 143.352 37.1477C143.792 37.6856 144.364 38.0871 145.068 38.3523C145.78 38.6174 146.576 38.75 147.455 38.75C148.371 38.75 149.174 38.6136 149.864 38.3409C150.561 38.0606 151.106 37.6742 151.5 37.1818C151.894 36.6818 152.095 36.0985 152.102 35.4318C152.095 34.8258 151.917 34.3258 151.568 33.9318C151.22 33.5303 150.731 33.197 150.102 32.9318C149.481 32.6591 148.754 32.4167 147.92 32.2045L145.273 31.5227C143.356 31.0303 141.841 30.2841 140.727 29.2841C139.621 28.2765 139.068 26.9394 139.068 25.2727C139.068 23.9015 139.439 22.7008 140.182 21.6705C140.932 20.6402 141.951 19.8409 143.239 19.2727C144.527 18.697 145.985 18.4091 147.614 18.4091C149.265 18.4091 150.712 18.697 151.955 19.2727C153.205 19.8409 154.186 20.6326 154.898 21.6477C155.61 22.6553 155.977 23.8144 156 25.125H151.943ZM167.622 42.3409C165.872 42.3409 164.361 41.9773 163.088 41.25C161.823 40.5152 160.849 39.4773 160.168 38.1364C159.486 36.7879 159.145 35.2008 159.145 33.375C159.145 31.5795 159.486 30.0038 160.168 28.6477C160.857 27.2841 161.819 26.2235 163.054 25.4659C164.289 24.7008 165.74 24.3182 167.406 24.3182C168.482 24.3182 169.497 24.4924 170.452 24.8409C171.414 25.1818 172.262 25.7121 172.997 26.4318C173.74 27.1515 174.323 28.0682 174.747 29.1818C175.171 30.2879 175.384 31.6061 175.384 33.1364V34.3977H161.077V31.625H171.44C171.433 30.8371 171.262 30.1364 170.929 29.5227C170.596 28.9015 170.13 28.4129 169.531 28.0568C168.94 27.7008 168.251 27.5227 167.463 27.5227C166.622 27.5227 165.884 27.7273 165.247 28.1364C164.611 28.5379 164.115 29.0682 163.759 29.7273C163.41 30.3788 163.232 31.0947 163.224 31.875V34.2955C163.224 35.3106 163.41 36.1818 163.781 36.9091C164.152 37.6288 164.671 38.1818 165.338 38.5682C166.005 38.947 166.785 39.1364 167.679 39.1364C168.277 39.1364 168.819 39.053 169.304 38.8864C169.789 38.7121 170.209 38.4583 170.565 38.125C170.921 37.7917 171.19 37.3788 171.372 36.8864L175.213 37.3182C174.971 38.3333 174.509 39.2197 173.827 39.9773C173.152 40.7273 172.289 41.3106 171.236 41.7273C170.183 42.1364 168.978 42.3409 167.622 42.3409ZM183.886 42.3523C182.78 42.3523 181.784 42.1553 180.898 41.7614C180.019 41.3598 179.322 40.7689 178.807 39.9886C178.299 39.2083 178.045 38.2462 178.045 37.1023C178.045 36.1174 178.227 35.303 178.591 34.6591C178.955 34.0152 179.451 33.5 180.08 33.1136C180.708 32.7273 181.417 32.4356 182.205 32.2386C183 32.0341 183.822 31.8864 184.67 31.7955C185.693 31.6894 186.523 31.5947 187.159 31.5114C187.795 31.4205 188.258 31.2841 188.545 31.1023C188.841 30.9129 188.989 30.6212 188.989 30.2273V30.1591C188.989 29.303 188.735 28.6402 188.227 28.1705C187.72 27.7008 186.989 27.4659 186.034 27.4659C185.027 27.4659 184.227 27.6856 183.636 28.125C183.053 28.5644 182.659 29.0833 182.455 29.6818L178.614 29.1364C178.917 28.0758 179.417 27.1894 180.114 26.4773C180.811 25.7576 181.663 25.2197 182.67 24.8636C183.678 24.5 184.792 24.3182 186.011 24.3182C186.852 24.3182 187.689 24.4167 188.523 24.6136C189.356 24.8106 190.117 25.1364 190.807 25.5909C191.496 26.0379 192.049 26.6477 192.466 27.4205C192.89 28.1932 193.102 29.1591 193.102 30.3182V42H189.148V39.6023H189.011C188.761 40.0871 188.409 40.5417 187.955 40.9659C187.508 41.3826 186.943 41.7197 186.261 41.9773C185.587 42.2273 184.795 42.3523 183.886 42.3523ZM184.955 39.3295C185.78 39.3295 186.496 39.1667 187.102 38.8409C187.708 38.5076 188.174 38.0682 188.5 37.5227C188.833 36.9773 189 36.3826 189 35.7386V33.6818C188.871 33.7879 188.652 33.8864 188.341 33.9773C188.038 34.0682 187.697 34.1477 187.318 34.2159C186.939 34.2841 186.564 34.3447 186.193 34.3977C185.822 34.4508 185.5 34.4962 185.227 34.5341C184.614 34.6174 184.064 34.7538 183.58 34.9432C183.095 35.1326 182.712 35.3977 182.432 35.7386C182.152 36.072 182.011 36.5038 182.011 37.0341C182.011 37.7917 182.288 38.3636 182.841 38.75C183.394 39.1364 184.098 39.3295 184.955 39.3295ZM197.239 42V24.5455H201.227V27.4545H201.409C201.727 26.447 202.273 25.6705 203.045 25.125C203.826 24.572 204.716 24.2955 205.716 24.2955C205.943 24.2955 206.197 24.3068 206.477 24.3295C206.765 24.3447 207.004 24.3712 207.193 24.4091V28.1932C207.019 28.1326 206.742 28.0795 206.364 28.0341C205.992 27.9811 205.633 27.9545 205.284 27.9545C204.534 27.9545 203.86 28.1174 203.261 28.4432C202.67 28.7614 202.205 29.2045 201.864 29.7727C201.523 30.3409 201.352 30.9962 201.352 31.7386V42H197.239ZM216.821 42.3409C215.079 42.3409 213.582 41.9583 212.332 41.1932C211.09 40.428 210.132 39.3712 209.457 38.0227C208.791 36.6667 208.457 35.1061 208.457 33.3409C208.457 31.5682 208.798 30.0038 209.48 28.6477C210.162 27.2841 211.124 26.2235 212.366 25.4659C213.616 24.7008 215.094 24.3182 216.798 24.3182C218.215 24.3182 219.469 24.5795 220.56 25.1023C221.658 25.6174 222.533 26.3485 223.185 27.2955C223.836 28.2348 224.207 29.3333 224.298 30.5909H220.366C220.207 29.75 219.829 29.0492 219.23 28.4886C218.639 27.9205 217.848 27.6364 216.855 27.6364C216.014 27.6364 215.276 27.8636 214.639 28.3182C214.003 28.7652 213.507 29.4091 213.151 30.25C212.802 31.0909 212.628 32.0985 212.628 33.2727C212.628 34.4621 212.802 35.4848 213.151 36.3409C213.499 37.1894 213.988 37.8447 214.616 38.3068C215.253 38.7614 215.999 38.9886 216.855 38.9886C217.461 38.9886 218.003 38.875 218.48 38.6477C218.965 38.4129 219.37 38.0758 219.696 37.6364C220.022 37.197 220.245 36.6629 220.366 36.0341H224.298C224.2 37.2689 223.836 38.3636 223.207 39.3182C222.579 40.2652 221.723 41.0076 220.639 41.5455C219.556 42.0758 218.283 42.3409 216.821 42.3409ZM231.79 31.7727V42H227.676V18.7273H231.699V27.5114H231.903C232.313 26.5265 232.945 25.75 233.801 25.1818C234.665 24.6061 235.763 24.3182 237.097 24.3182C238.309 24.3182 239.366 24.572 240.267 25.0795C241.169 25.5871 241.866 26.3295 242.358 27.3068C242.858 28.2841 243.108 29.4773 243.108 30.8864V42H238.994V31.5227C238.994 30.3485 238.691 29.4356 238.085 28.7841C237.487 28.125 236.646 27.7955 235.562 27.7955C234.835 27.7955 234.184 27.9545 233.608 28.2727C233.04 28.5833 232.593 29.0341 232.267 29.625C231.949 30.2159 231.79 30.9318 231.79 31.7727ZM264.08 24.5455V27.7273H253.761V24.5455H264.08ZM256.341 42V22.8977C256.341 21.7235 256.583 20.7462 257.068 19.9659C257.561 19.1856 258.22 18.6023 259.045 18.2159C259.871 17.8295 260.788 17.6364 261.795 17.6364C262.508 17.6364 263.14 17.6932 263.693 17.8068C264.246 17.9205 264.655 18.0227 264.92 18.1136L264.102 21.2955C263.928 21.2424 263.708 21.1894 263.443 21.1364C263.178 21.0758 262.883 21.0455 262.557 21.0455C261.792 21.0455 261.25 21.2311 260.932 21.6023C260.621 21.9659 260.466 22.4886 260.466 23.1705V42H256.341ZM274.259 42.3409C272.554 42.3409 271.077 41.9659 269.827 41.2159C268.577 40.4659 267.607 39.4167 266.918 38.0682C266.236 36.7197 265.895 35.1439 265.895 33.3409C265.895 31.5379 266.236 29.9583 266.918 28.6023C267.607 27.2462 268.577 26.1932 269.827 25.4432C271.077 24.6932 272.554 24.3182 274.259 24.3182C275.963 24.3182 277.44 24.6932 278.69 25.4432C279.94 26.1932 280.906 27.2462 281.588 28.6023C282.277 29.9583 282.622 31.5379 282.622 33.3409C282.622 35.1439 282.277 36.7197 281.588 38.0682C280.906 39.4167 279.94 40.4659 278.69 41.2159C277.44 41.9659 275.963 42.3409 274.259 42.3409ZM274.281 39.0455C275.205 39.0455 275.978 38.7917 276.599 38.2841C277.221 37.7689 277.683 37.0795 277.986 36.2159C278.296 35.3523 278.452 34.3902 278.452 33.3295C278.452 32.2614 278.296 31.2955 277.986 30.4318C277.683 29.5606 277.221 28.8674 276.599 28.3523C275.978 27.8371 275.205 27.5795 274.281 27.5795C273.334 27.5795 272.546 27.8371 271.918 28.3523C271.296 28.8674 270.83 29.5606 270.52 30.4318C270.217 31.2955 270.065 32.2614 270.065 33.3295C270.065 34.3902 270.217 35.3523 270.52 36.2159C270.83 37.0795 271.296 37.7689 271.918 38.2841C272.546 38.7917 273.334 39.0455 274.281 39.0455ZM286.114 42V24.5455H290.102V27.4545H290.284C290.602 26.447 291.148 25.6705 291.92 25.125C292.701 24.572 293.591 24.2955 294.591 24.2955C294.818 24.2955 295.072 24.3068 295.352 24.3295C295.64 24.3447 295.879 24.3712 296.068 24.4091V28.1932C295.894 28.1326 295.617 28.0795 295.239 28.0341C294.867 27.9811 294.508 27.9545 294.159 27.9545C293.409 27.9545 292.735 28.1174 292.136 28.4432C291.545 28.7614 291.08 29.2045 290.739 29.7727C290.398 30.3409 290.227 30.9962 290.227 31.7386V42H286.114ZM326.841 26.5795H322.591C322.47 25.8826 322.246 25.2652 321.92 24.7273C321.595 24.1818 321.189 23.7197 320.705 23.3409C320.22 22.9621 319.667 22.678 319.045 22.4886C318.432 22.2917 317.769 22.1932 317.057 22.1932C315.792 22.1932 314.67 22.5114 313.693 23.1477C312.716 23.7765 311.951 24.7008 311.398 25.9205C310.845 27.1326 310.568 28.6136 310.568 30.3636C310.568 32.1439 310.845 33.6439 311.398 34.8636C311.958 36.0758 312.723 36.9924 313.693 37.6136C314.67 38.2273 315.788 38.5341 317.045 38.5341C317.742 38.5341 318.394 38.4432 319 38.2614C319.614 38.072 320.163 37.7955 320.648 37.4318C321.14 37.0682 321.553 36.6212 321.886 36.0909C322.227 35.5606 322.462 34.9545 322.591 34.2727L326.841 34.2955C326.682 35.4015 326.337 36.4394 325.807 37.4091C325.284 38.3788 324.598 39.2348 323.75 39.9773C322.902 40.7121 321.909 41.2879 320.773 41.7045C319.636 42.1136 318.375 42.3182 316.989 42.3182C314.943 42.3182 313.117 41.8447 311.511 40.8977C309.905 39.9508 308.64 38.5833 307.716 36.7955C306.792 35.0076 306.33 32.8636 306.33 30.3636C306.33 27.8561 306.795 25.7121 307.727 23.9318C308.659 22.1439 309.928 20.7765 311.534 19.8295C313.14 18.8826 314.958 18.4091 316.989 18.4091C318.284 18.4091 319.489 18.5909 320.602 18.9545C321.716 19.3182 322.708 19.8523 323.58 20.5568C324.451 21.2538 325.167 22.1098 325.727 23.125C326.295 24.1326 326.667 25.2841 326.841 26.5795ZM338.134 42.3409C336.429 42.3409 334.952 41.9659 333.702 41.2159C332.452 40.4659 331.482 39.4167 330.793 38.0682C330.111 36.7197 329.77 35.1439 329.77 33.3409C329.77 31.5379 330.111 29.9583 330.793 28.6023C331.482 27.2462 332.452 26.1932 333.702 25.4432C334.952 24.6932 336.429 24.3182 338.134 24.3182C339.838 24.3182 341.315 24.6932 342.565 25.4432C343.815 26.1932 344.781 27.2462 345.463 28.6023C346.152 29.9583 346.497 31.5379 346.497 33.3409C346.497 35.1439 346.152 36.7197 345.463 38.0682C344.781 39.4167 343.815 40.4659 342.565 41.2159C341.315 41.9659 339.838 42.3409 338.134 42.3409ZM338.156 39.0455C339.08 39.0455 339.853 38.7917 340.474 38.2841C341.096 37.7689 341.558 37.0795 341.861 36.2159C342.171 35.3523 342.327 34.3902 342.327 33.3295C342.327 32.2614 342.171 31.2955 341.861 30.4318C341.558 29.5606 341.096 28.8674 340.474 28.3523C339.853 27.8371 339.08 27.5795 338.156 27.5795C337.209 27.5795 336.421 27.8371 335.793 28.3523C335.171 28.8674 334.705 29.5606 334.395 30.4318C334.092 31.2955 333.94 32.2614 333.94 33.3295C333.94 34.3902 334.092 35.3523 334.395 36.2159C334.705 37.0795 335.171 37.7689 335.793 38.2841C336.421 38.7917 337.209 39.0455 338.156 39.0455ZM349.989 42V24.5455H353.92V27.5114H354.125C354.489 26.5114 355.091 25.7311 355.932 25.1705C356.773 24.6023 357.777 24.3182 358.943 24.3182C360.125 24.3182 361.121 24.6061 361.932 25.1818C362.75 25.75 363.326 26.5265 363.659 27.5114H363.841C364.227 26.5417 364.879 25.7689 365.795 25.1932C366.72 24.6098 367.814 24.3182 369.08 24.3182C370.686 24.3182 371.996 24.8258 373.011 25.8409C374.027 26.8561 374.534 28.3371 374.534 30.2841V42H370.409V30.9205C370.409 29.8371 370.121 29.0455 369.545 28.5455C368.97 28.0379 368.265 27.7841 367.432 27.7841C366.439 27.7841 365.663 28.0947 365.102 28.7159C364.549 29.3295 364.273 30.1288 364.273 31.1136V42H360.239V30.75C360.239 29.8485 359.966 29.1288 359.42 28.5909C358.883 28.053 358.178 27.7841 357.307 27.7841C356.716 27.7841 356.178 27.9356 355.693 28.2386C355.208 28.5341 354.822 28.9545 354.534 29.5C354.246 30.0379 354.102 30.6667 354.102 31.3864V42H349.989ZM378.707 48.5455V24.5455H382.753V27.4318H382.991C383.204 27.0076 383.503 26.5568 383.889 26.0795C384.276 25.5947 384.798 25.1818 385.457 24.8409C386.116 24.4924 386.957 24.3182 387.98 24.3182C389.329 24.3182 390.545 24.6629 391.628 25.3523C392.719 26.0341 393.582 27.0455 394.219 28.3864C394.863 29.7197 395.185 31.3561 395.185 33.2955C395.185 35.2121 394.87 36.8409 394.241 38.1818C393.613 39.5227 392.757 40.5455 391.673 41.25C390.59 41.9545 389.363 42.3068 387.991 42.3068C386.991 42.3068 386.162 42.1402 385.503 41.8068C384.844 41.4735 384.313 41.072 383.912 40.6023C383.518 40.125 383.211 39.6742 382.991 39.25H382.821V48.5455H378.707ZM382.741 33.2727C382.741 34.4015 382.901 35.3902 383.219 36.2386C383.545 37.0871 384.01 37.75 384.616 38.2273C385.23 38.697 385.973 38.9318 386.844 38.9318C387.753 38.9318 388.514 38.6894 389.128 38.2045C389.741 37.7121 390.204 37.0417 390.514 36.1932C390.832 35.3371 390.991 34.3636 390.991 33.2727C390.991 32.1894 390.836 31.2273 390.526 30.3864C390.215 29.5455 389.753 28.8864 389.139 28.4091C388.526 27.9318 387.76 27.6932 386.844 27.6932C385.965 27.6932 385.219 27.9242 384.605 28.3864C383.991 28.8485 383.526 29.4962 383.207 30.3295C382.897 31.1629 382.741 32.1439 382.741 33.2727ZM403.73 42.3523C402.624 42.3523 401.628 42.1553 400.741 41.7614C399.863 41.3598 399.166 40.7689 398.651 39.9886C398.143 39.2083 397.889 38.2462 397.889 37.1023C397.889 36.1174 398.071 35.303 398.435 34.6591C398.798 34.0152 399.295 33.5 399.923 33.1136C400.552 32.7273 401.26 32.4356 402.048 32.2386C402.844 32.0341 403.666 31.8864 404.514 31.7955C405.537 31.6894 406.366 31.5947 407.003 31.5114C407.639 31.4205 408.101 31.2841 408.389 31.1023C408.685 30.9129 408.832 30.6212 408.832 30.2273V30.1591C408.832 29.303 408.579 28.6402 408.071 28.1705C407.563 27.7008 406.832 27.4659 405.878 27.4659C404.87 27.4659 404.071 27.6856 403.48 28.125C402.897 28.5644 402.503 29.0833 402.298 29.6818L398.457 29.1364C398.76 28.0758 399.26 27.1894 399.957 26.4773C400.654 25.7576 401.507 25.2197 402.514 24.8636C403.522 24.5 404.635 24.3182 405.855 24.3182C406.696 24.3182 407.533 24.4167 408.366 24.6136C409.2 24.8106 409.961 25.1364 410.651 25.5909C411.34 26.0379 411.893 26.6477 412.31 27.4205C412.734 28.1932 412.946 29.1591 412.946 30.3182V42H408.991V39.6023H408.855C408.605 40.0871 408.253 40.5417 407.798 40.9659C407.351 41.3826 406.787 41.7197 406.105 41.9773C405.431 42.2273 404.639 42.3523 403.73 42.3523ZM404.798 39.3295C405.624 39.3295 406.34 39.1667 406.946 38.8409C407.552 38.5076 408.018 38.0682 408.344 37.5227C408.677 36.9773 408.844 36.3826 408.844 35.7386V33.6818C408.715 33.7879 408.495 33.8864 408.185 33.9773C407.882 34.0682 407.541 34.1477 407.162 34.2159C406.783 34.2841 406.408 34.3447 406.037 34.3977C405.666 34.4508 405.344 34.4962 405.071 34.5341C404.457 34.6174 403.908 34.7538 403.423 34.9432C402.938 35.1326 402.556 35.3977 402.276 35.7386C401.995 36.072 401.855 36.5038 401.855 37.0341C401.855 37.7917 402.132 38.3636 402.685 38.75C403.238 39.1364 403.942 39.3295 404.798 39.3295ZM421.196 31.7727V42H417.082V24.5455H421.014V27.5114H421.219C421.62 26.5341 422.26 25.7576 423.139 25.1818C424.026 24.6061 425.12 24.3182 426.423 24.3182C427.628 24.3182 428.677 24.5758 429.571 25.0909C430.473 25.6061 431.17 26.3523 431.662 27.3295C432.162 28.3068 432.408 29.4924 432.401 30.8864V42H428.287V31.5227C428.287 30.3561 427.984 29.4432 427.378 28.7841C426.779 28.125 425.95 27.7955 424.889 27.7955C424.17 27.7955 423.529 27.9545 422.969 28.2727C422.416 28.5833 421.98 29.0341 421.662 29.625C421.351 30.2159 421.196 30.9318 421.196 31.7727ZM438.514 48.5455C437.954 48.5455 437.435 48.5 436.957 48.4091C436.488 48.3258 436.113 48.2273 435.832 48.1136L436.787 44.9091C437.385 45.0833 437.92 45.1667 438.389 45.1591C438.859 45.1515 439.272 45.0038 439.628 44.7159C439.991 44.4356 440.298 43.9659 440.548 43.3068L440.901 42.3636L434.571 24.5455H438.935L442.957 37.7273H443.139L447.173 24.5455H451.548L444.56 44.1136C444.234 45.0379 443.802 45.8295 443.264 46.4886C442.726 47.1553 442.067 47.6629 441.287 48.0114C440.514 48.3674 439.59 48.5455 438.514 48.5455Z" fill="white" fill-opacity="0.5"/>
<path d="M117.161 18.031C123.138 18.031 128 22.8932 128 28.8703C128 34.8475 123.138 39.7097 117.161 39.7097C115.333 39.7097 113.537 39.2761 112.02 38.44C111.898 38.5862 111.763 38.721 111.617 38.8426L108.52 41.9395C108.234 42.2613 107.885 42.5212 107.495 42.7034C107.105 42.8855 106.682 42.986 106.252 42.9986C105.822 43.0113 105.393 42.9359 104.993 42.777C104.593 42.6181 104.23 42.3792 103.925 42.0748C103.621 41.7704 103.382 41.407 103.223 41.0069C103.064 40.6068 102.989 40.1784 103.001 39.7481C103.014 39.3179 103.115 38.8947 103.297 38.5046C103.479 38.1146 103.739 37.7659 104.06 37.4799L107.157 34.3829C107.308 34.232 107.474 34.0971 107.653 33.9803C106.817 32.4628 106.29 30.6975 106.29 28.8394C106.29 22.8622 111.153 18 117.13 18L117.161 18.031ZM117.161 21.1279C112.856 21.1279 109.418 24.5656 109.418 28.8703C109.418 30.9143 110.161 32.8035 111.462 34.1971C111.493 34.2281 111.524 34.2591 111.555 34.29C111.701 34.4116 111.836 34.5463 111.958 34.6926C113.32 35.9314 115.179 36.6437 117.192 36.6437C121.496 36.6437 124.934 33.2061 124.934 28.9013C124.934 24.5965 121.496 21.1589 117.192 21.1589L117.161 21.1279Z" fill="white" fill-opacity="0.5"/>
</svg>
