<?xml version="1.0" encoding="UTF-8"?><svg id="a" xmlns="http://www.w3.org/2000/svg" viewBox="0 0 736 751"><defs><style>.b{fill:#fcfcfc;}.c{fill:#fefefe;}.d{fill:#0b6638;}</style></defs><path class="b" d="M735.94788,375.48459c0,124.30218-.00525,248.60439,.04626,372.90653,.00079,1.99533-.26424,2.60955-2.50068,2.60888-243.69488-.06865-487.38978-.06792-731.08465-.00708C.3432,750.99347-.00044,750.53127,0,748.54283,.05555,499.85517,.05525,251.1675,.00377,2.47985,.00337,.5465,.26021-.00056,2.38233,0,246.07721,.06444,489.77209,.06443,733.46697,.00131c2.16479-.00056,2.534,.51174,2.53303,2.57733-.05816,124.30196-.05212,248.60395-.05212,372.90595Z"/><path class="d" d="M299.14851,190.29838c-9.31502-5.27752-18.42792-10.39942-27.48642-15.61576-1.40394-.80847-2.41897-.74853-3.80552,.05019-35.73662,20.58513-71.50402,41.1168-107.25885,61.67029-7.12248,4.09432-14.17624,8.31029-21.35112,12.3097-1.69005,.94209-2.29382,1.92082-2.298,3.85181-.19027,87.73319-.63339,175.46584-.47736,263.19978,.04446,24.99528,.01396,49.99069,.01399,74.98603,0,.4835-.04775,.967-.08126,1.60325-1.71654-.28908-2.91909-1.3766-4.23324-2.1313-20.44937-11.74377-40.86672-23.54325-61.29872-35.31723-1.00484-.57907-1.56497-1.23655-1.49878-2.52637,.12365-2.40988,.03546-4.83062,.03556-7.24684,.00462-110.06282,.01834-220.12565-.04411-330.18845-.00141-2.4839,.73503-3.73853,2.92035-4.99439,50.42047-28.97573,100.78415-58.05026,151.15522-87.11194,14.44744-8.33549,28.9179-16.63217,43.29392-25.08925,2.32612-1.36839,4.04538-1.30741,6.32726,.01343,50.41775,29.18366,100.87487,58.29933,151.3253,87.42654,27.79439,16.0469,55.58142,32.10655,83.3885,48.13144,18.98671,10.94178,37.98987,21.85524,57.0272,32.70863,1.63234,.93057,2.05055,2.01532,2.05086,3.78059,.00738,42.15868,.05444,84.31736,.1356,126.47598,.0141,7.33105,.25259,14.66156,.30129,21.99285,.01257,1.89147,.3044,2.36252,2.15851,1.27274,8.37381-4.92185,16.78851-9.77672,25.26282-14.52303,1.61592-.90506,1.86076-2.01541,1.85252-3.62549-.15891-30.91031-.28927-61.82075-.40369-92.73124-.06878-18.57973-.12974-37.15964-.10698-55.73936,.0025-2.04216-.49688-3.19537-2.41048-4.28914-35.43954-20.25569-70.83007-40.59713-106.20837-60.95968-34.28284-19.73206-68.53691-39.51409-102.80965-59.26366-27.76961-16.00215-55.54505-31.99428-83.33034-47.96919-1.7882-1.02813-1.81523-1.54527,.07973-2.63028,21.24081-12.16212,42.4383-24.4001,63.62086-36.66354,1.23826-.71687,2.12098-.74715,3.39054-.01388,64.92301,37.49685,129.87258,74.94771,194.81204,112.41615,19.24592,11.10444,38.45815,22.26719,57.70883,33.36345,13.58425,7.83013,27.19273,15.61861,40.83397,23.34878,1.4423,.81728,1.89078,1.70978,1.88999,3.32392-.03558,75.8192-.03167,151.63841,.02014,227.45758,.00116,1.7307-.56535,2.63536-2.03816,3.48029-20.87295,11.97438-41.60211,24.20324-62.58088,35.98823-32.22253,18.10132-64.06089,36.86589-96.12805,55.23459-44.70906,25.61035-89.35347,51.33366-133.98906,77.07193-1.82164,1.05048-3.09023,1.10382-4.94424,.03063-42.45407-24.57549-84.95221-49.07489-127.442-73.58874-.28776-.16599-.58503-.31849-.8584-.50571-1.38782-.95046-2.16397-.98677-2.16716,1.09015-.01549,10.08078-.07947,20.1618-.20992,30.2416-.01994,1.54064,.9898,1.96403,1.97868,2.53528,14.59436,8.4303,29.18451,16.86798,43.79092,25.27734,28.1982,16.23466,56.41916,32.42989,84.58294,48.72399,2.05165,1.187,3.5666,1.23374,5.6231,.03887,18.23645-10.59546,36.44763-21.2395,54.8322-31.57408,49.03798-27.56596,97.51957-56.09733,146.30652-84.09852,30.17539-17.31907,60.29172-34.74128,90.43855-52.11033,.77198-.44481,1.47025-1.07733,2.44832-1.14224,.56932,.76998,.29201,1.62262,.2925,2.41076,.01538,23.91221-.01178,47.82448,.05132,71.73651,.00507,1.90386-.54655,2.93555-2.24034,3.90987-44.82193,25.78281-89.6059,51.63153-134.39445,77.47237-50.44546,29.10452-100.88891,58.2124-151.33363,87.31814-2.30164,1.32796-4.68351,2.53553-6.88476,4.01258-1.53546,1.03041-2.68489,.64467-4.09268-.17111-21.23703-12.30825-42.48904-24.59063-63.75198-36.85408-44.18485-25.48367-88.37367-50.96044-132.5861-76.3962-1.63383-.93997-2.22361-1.96507-2.22255-3.89242,.06193-112.47905,.06779-224.95809,.0229-337.43711-.00076-1.92842,.59707-2.96539,2.24916-3.91725,42.78484-24.65119,85.54006-49.35374,128.29675-74.05372,.78007-.45064,1.51565-.97832,2.44841-1.58471Z"/><path class="c" d="M233.85307,382.98047c-.00002-24.66065,.02668-49.32143-.04511-73.98186-.00651-2.23876,.57008-3.51952,2.63477-4.70597,42.30689-24.31144,84.57508-48.69049,126.77596-73.18534,2.5329-1.47018,4.28165-1.11787,6.52422,.17949,28.9765,16.76335,57.97964,33.48076,86.98595,50.1926,13.44547,7.74657,26.90044,15.477,40.38695,23.15175,1.47397,.83879,2.09971,1.73784,2.1041,3.505,.12358,49.65426,.30464,99.30842,.50765,148.96243,.00659,1.61271-.2543,2.7313-1.84913,3.64734-40.56866,23.30208-81.099,46.67087-121.65204,70.00017-2.87786,1.65561-5.90205,3.05503-8.81216,4.65718-1.34981,.7431-2.39865,.40508-3.63849-.31361-18.32042-10.61993-36.66709-21.19459-55.00719-31.78065-24.1609-13.94589-48.3085-27.91493-72.50796-41.79354-1.84514-1.05823-2.46193-2.20801-2.4556-4.30324,.0748-24.74374,.0481-49.48778,.04809-74.23176Z"/></svg>